<svg xmlns="http://www.w3.org/2000/svg" xmlns:xlink="http://www.w3.org/1999/xlink" width="655" height="178" viewBox="0 0 655 178">
  <defs>
    <polygon id="status-bg-a" points="0 0 514.455 0 655 0 655 178 0 178"/>
    <linearGradient id="status-bg-b" x1="11.229%" x2="100%" y1="45.842%" y2="62.838%">
      <stop offset="0%" stop-color="#00FF87"/>
      <stop offset="100%" stop-color="#37003C"/>
    </linearGradient>
  </defs>
  <g fill="none" fill-rule="evenodd">
    <mask id="status-bg-c" fill="#fff">
      <use xlink:href="#status-bg-a"/>
    </mask>
    <path fill="url(#status-bg-b)" d="M-46,-191 C27.8172502,-161.680099 114.268637,-146.896136 197.771431,-144.003769 L160.660584,-106.744794 C212.637912,-95.5345109 262.767004,-89.902525 318.080045,-89.902525 C365.959469,-89.902525 398.510729,-91.4012624 443.951444,-99.8605839 L384.438824,-40.1099617 C486.062472,-50.8083153 596.004692,-84.383209 681.791045,-131.092094 L681.791045,-5.31384657 C577.876306,38.9994779 462.239499,63.563799 342.223108,63.563799 C325.595756,63.563799 322.174936,64.0674111 305.778802,63.1388291 L356.436606,12.283841 C264.197241,12.283841 164.91891,-0.493991782 81.5486707,-27.3132246 L116.99279,-62.8942486 C60.9303622,-77.3689365 4.71353767,-99.292697 -46,-124.760646 L-46,-191 Z M0.208955224,80.5385346 L0.208955224,14.2998605 C74.0270349,43.6197955 160.477758,58.4037758 243.980639,61.2969019 L206.869,98.5551635 C258.846382,109.76546 308.976278,115.397452 364.289377,115.397452 C412.170357,115.397452 444.720897,113.897957 490.160154,105.438626 L430.648224,165.190073 C532.271978,154.491707 642.215065,120.916775 728,74.2078363 L728,199.986229 C624.085154,244.299604 508.449733,268.863954 388.432465,268.863954 C371.805095,268.863954 368.383519,269.36681 351.988121,268.438984 L402.646731,217.583937 C310.40727,217.583937 211.128083,204.806089 127.757758,177.986825 L163.201914,142.40576 C107.138675,127.931055 50.9225454,106.00727 0.208955224,80.5385346 Z" mask="url(#status-bg-c)"/>
  </g>
</svg>
