<?xml version="1.0" encoding="UTF-8" standalone="no" ?>
<!DOCTYPE svg PUBLIC "-//W3C//DTD SVG 1.1//EN" "http://www.w3.org/Graphics/SVG/1.1/DTD/svg11.dtd">
<svg xmlns="http://www.w3.org/2000/svg" xmlns:xlink="http://www.w3.org/1999/xlink" version="1.1" width="1702" height="1089" viewBox="0 0 1702 1089" xml:space="preserve">
<desc>Created with Fabric.js 3.6.3</desc>
<defs>
</defs>
<g transform="matrix(0.79 0 0 0.79 851.23 566.36)"  >
<path style="stroke: none; stroke-width: 1; stroke-dasharray: none; stroke-linecap: butt; stroke-dashoffset: 0; stroke-linejoin: miter; stroke-miterlimit: 4; fill: rgb(1,186,92); fill-rule: nonzero; opacity: 1;"  transform=" translate(-1077, -712.96)" d="M 1763.472 57.927 H 390.528 L 0 1368 h 2154 L 1763.472 57.927" stroke-linecap="round" />
</g>
<g transform="matrix(0.79 0 0 0.79 850.17 1040.91)"  >
<path style="stroke: none; stroke-width: 1; stroke-dasharray: none; stroke-linecap: butt; stroke-dashoffset: 0; stroke-linejoin: miter; stroke-miterlimit: 4; fill: rgb(0,174,85); fill-rule: evenodd; opacity: 1;"  transform=" translate(-1075.67, -1313.66)" d="M 71.279 1260.039 h 2008.588 l 32.447 107.235 H 39.03 z" stroke-linecap="round" />
</g>
<g transform="matrix(0.79 0 0 0.79 850.13 927.7)"  >
<path style="stroke: none; stroke-width: 1; stroke-dasharray: none; stroke-linecap: butt; stroke-dashoffset: 0; stroke-linejoin: miter; stroke-miterlimit: 4; fill: rgb(1,186,92); fill-rule: evenodd; opacity: 1;"  transform=" translate(-1075.63, -1170.34)" d="M 122.481 1080.646 H 2028.78 l 52.609 179.393 H 69.865 z" stroke-linecap="round" />
</g>
<g transform="matrix(0.79 0 0 0.79 850.19 792.3)"  >
<path style="stroke: none; stroke-width: 1; stroke-dasharray: none; stroke-linecap: butt; stroke-dashoffset: 0; stroke-linejoin: miter; stroke-miterlimit: 4; fill: rgb(0,174,85); fill-rule: evenodd; opacity: 1;"  transform=" translate(-1075.69, -998.97)" d="M 170.291 917.288 h 1809.498 l 50.04 163.358 H 121.555 z" stroke-linecap="round" />
</g>
<g transform="matrix(0.79 0 0 0.79 850.57 669.18)"  >
<path style="stroke: none; stroke-width: 1; stroke-dasharray: none; stroke-linecap: butt; stroke-dashoffset: 0; stroke-linejoin: miter; stroke-miterlimit: 4; fill: rgb(1,186,92); fill-rule: evenodd; opacity: 1;"  transform=" translate(-1076.18, -843.13)" d="M 214.077 768.962 h 1724.308 l 43.016 148.326 H 170.962 z" stroke-linecap="round" />
</g>
<g transform="matrix(0.79 0 0 0.79 851.23 557.16)"  >
<path style="stroke: none; stroke-width: 1; stroke-dasharray: none; stroke-linecap: butt; stroke-dashoffset: 0; stroke-linejoin: miter; stroke-miterlimit: 4; fill: rgb(0,174,85); fill-rule: evenodd; opacity: 1;"  transform=" translate(-1077.02, -701.31)" d="M 251.293 633.666 h 1648.348 l 39.437 135.296 H 214.959 z" stroke-linecap="round" />
</g>
<g transform="matrix(0.79 0 0 0.79 850.76 455.02)"  >
<path style="stroke: none; stroke-width: 1; stroke-dasharray: none; stroke-linecap: butt; stroke-dashoffset: 0; stroke-linejoin: miter; stroke-miterlimit: 4; fill: rgb(1,186,92); fill-rule: evenodd; opacity: 1;"  transform=" translate(-1076.41, -572.03)" d="M 287.634 510.395 h 1575.93 l 36.369 123.271 H 252.896 z" stroke-linecap="round" />
</g>
<g transform="matrix(0.79 0 0 0.79 850.3 361.99)"  >
<path style="stroke: none; stroke-width: 1; stroke-dasharray: none; stroke-linecap: butt; stroke-dashoffset: 0; stroke-linejoin: miter; stroke-miterlimit: 4; fill: rgb(0,174,85); fill-rule: evenodd; opacity: 1;"  transform=" translate(-1075.84, -454.27)" d="M 321.337 398.149 h 1508.542 l 32.937 112.246 H 288.857 z" stroke-linecap="round" />
</g>
<g transform="matrix(0.79 0 0 0.79 850.68 277.28)"  >
<path style="stroke: none; stroke-width: 1; stroke-dasharray: none; stroke-linecap: butt; stroke-dashoffset: 0; stroke-linejoin: miter; stroke-miterlimit: 4; fill: rgb(1,186,92); fill-rule: evenodd; opacity: 1;"  transform=" translate(-1076.31, -347.04)" d="M 351.207 295.925 h 1449.817 l 27.033 102.224 H 324.569 z" stroke-linecap="round" />
</g>
<g transform="matrix(0.79 0 0 0.79 851.07 200.08)"  >
<path style="stroke: none; stroke-width: 1; stroke-dasharray: none; stroke-linecap: butt; stroke-dashoffset: 0; stroke-linejoin: miter; stroke-miterlimit: 4; fill: rgb(0,174,85); fill-rule: nonzero; opacity: 1;"  transform=" translate(-1076.81, -249.32)" d="M 378.187 202.721 h 1396.87 l 26.045 93.204 H 352.522 z" stroke-linecap="round" />
</g>
<g transform="matrix(0.79 0 0 0.79 851.03 129.22)"  >
<path style="stroke: none; stroke-width: 1; stroke-dasharray: none; stroke-linecap: butt; stroke-dashoffset: 0; stroke-linejoin: miter; stroke-miterlimit: 4; fill: rgb(1,186,92); fill-rule: evenodd; opacity: 1;"  transform=" translate(-1076.76, -159.63)" d="M 403.022 116.531 H 1750.77 l 22.897 86.19 H 379.861 z" stroke-linecap="round" />
</g>
<g transform="matrix(0.79 0 0 0.79 851.03 129.22)"  >
<path style="stroke: none; stroke-width: 1; stroke-dasharray: none; stroke-linecap: butt; stroke-dashoffset: 0; stroke-linejoin: miter; stroke-miterlimit: 4; fill: rgb(1,186,92); fill-rule: evenodd; opacity: 1;"  transform=" translate(-1076.76, -159.63)" d="M 403.022 116.531 H 1750.77 l 22.897 86.19 H 379.861 z" stroke-linecap="round" />
</g>
<g transform="matrix(0.79 0 0 0.79 851.53 71.63)"  >
<path style="stroke: none; stroke-width: 1; stroke-dasharray: none; stroke-linecap: butt; stroke-dashoffset: 0; stroke-linejoin: miter; stroke-miterlimit: 4; fill: rgb(0,0,0); fill-rule: nonzero; opacity: 0.1;"  transform=" translate(-1077.39, -86.73)" d="m 890.208 57.925 l 29.95 57.605 h 314.474 l 29.95 -57.605 z" stroke-linecap="round" />
</g>
<g transform="matrix(0.79 0 0 0.79 735.64 13.4)"  >
<path style="stroke: none; stroke-width: 1; stroke-dasharray: none; stroke-linecap: butt; stroke-dashoffset: 0; stroke-linejoin: miter; stroke-miterlimit: 4; fill: rgb(206,206,206); fill-rule: nonzero; opacity: 1;"  transform=" translate(-930.69, -13.02)" d="m 930.69 4.799 l 7.204 4.11 v 8.221 l -7.204 4.11 l -7.203 -4.11 V 8.91 l 7.203 -4.111 m 0 -1.007 l -8.003 4.614 v 9.227 l 8.003 4.614 l 8.004 -4.614 V 8.406 l -8.004 -4.614 Z" stroke-linecap="round" />
</g>
<g transform="matrix(0.79 0 0 0.79 747.65 13.4)"  >
<path style="stroke: none; stroke-width: 1; stroke-dasharray: none; stroke-linecap: butt; stroke-dashoffset: 0; stroke-linejoin: miter; stroke-miterlimit: 4; fill: rgb(206,206,206); fill-rule: nonzero; opacity: 1;"  transform=" translate(-945.9, -13.02)" d="m 945.897 4.799 l 7.203 4.11 v 8.221 l -7.203 4.11 l -7.203 -4.11 V 8.91 l 7.203 -4.111 m 0 -1.007 l -8.003 4.614 v 9.227 l 8.003 4.614 l 8.003 -4.614 V 8.406 l -8.003 -4.614 Z" stroke-linecap="round" />
</g>
<g transform="matrix(0.79 0 0 0.79 759.66 13.4)"  >
<path style="stroke: none; stroke-width: 1; stroke-dasharray: none; stroke-linecap: butt; stroke-dashoffset: 0; stroke-linejoin: miter; stroke-miterlimit: 4; fill: rgb(206,206,206); fill-rule: nonzero; opacity: 1;"  transform=" translate(-961.1, -13.02)" d="m 961.103 4.799 l 7.204 4.11 v 8.221 l -7.204 4.11 l -7.203 -4.11 V 8.91 l 7.203 -4.111 m 0 -1.007 L 953.1 8.406 v 9.227 l 8.003 4.614 l 8.004 -4.614 V 8.406 l -8.004 -4.614 Z" stroke-linecap="round" />
</g>
<g transform="matrix(0.79 0 0 0.79 771.68 13.4)"  >
<path style="stroke: none; stroke-width: 1; stroke-dasharray: none; stroke-linecap: butt; stroke-dashoffset: 0; stroke-linejoin: miter; stroke-miterlimit: 4; fill: rgb(206,206,206); fill-rule: nonzero; opacity: 1;"  transform=" translate(-976.31, -13.02)" d="m 976.31 4.799 l 7.203 4.11 v 8.221 l -7.203 4.11 l -7.203 -4.11 V 8.91 l 7.203 -4.111 m 0 -1.007 l -8.003 4.614 v 9.227 l 8.003 4.614 l 8.003 -4.614 V 8.406 l -8.003 -4.614 Z" stroke-linecap="round" />
</g>
<g transform="matrix(0.79 0 0 0.79 783.69 13.4)"  >
<path style="stroke: none; stroke-width: 1; stroke-dasharray: none; stroke-linecap: butt; stroke-dashoffset: 0; stroke-linejoin: miter; stroke-miterlimit: 4; fill: rgb(206,206,206); fill-rule: nonzero; opacity: 1;"  transform=" translate(-991.52, -13.02)" d="m 991.517 4.799 l 7.203 4.11 v 8.221 l -7.203 4.11 l -7.204 -4.11 V 8.91 l 7.204 -4.111 m 0 -1.007 l -8.004 4.614 v 9.227 l 8.004 4.614 l 8.003 -4.614 V 8.406 l -8.003 -4.614 Z" stroke-linecap="round" />
</g>
<g transform="matrix(0.79 0 0 0.79 795.7 13.4)"  >
<path style="stroke: none; stroke-width: 1; stroke-dasharray: none; stroke-linecap: butt; stroke-dashoffset: 0; stroke-linejoin: miter; stroke-miterlimit: 4; fill: rgb(206,206,206); fill-rule: nonzero; opacity: 1;"  transform=" translate(-1006.72, -13.02)" d="m 1006.723 4.799 l 7.203 4.11 v 8.221 l -7.203 4.11 l -7.203 -4.11 V 8.91 l 7.203 -4.111 m 0 -1.007 l -8.003 4.614 v 9.227 l 8.003 4.614 l 8.004 -4.614 V 8.406 l -8.004 -4.614 Z" stroke-linecap="round" />
</g>
<g transform="matrix(0.79 0 0 0.79 807.72 13.4)"  >
<path style="stroke: none; stroke-width: 1; stroke-dasharray: none; stroke-linecap: butt; stroke-dashoffset: 0; stroke-linejoin: miter; stroke-miterlimit: 4; fill: rgb(206,206,206); fill-rule: nonzero; opacity: 1;"  transform=" translate(-1021.93, -13.02)" d="m 1021.93 4.799 l 7.203 4.11 v 8.221 l -7.203 4.11 l -7.203 -4.11 V 8.91 l 7.203 -4.111 m 0 -1.007 l -8.004 4.614 v 9.227 l 8.004 4.614 l 8.003 -4.614 V 8.406 l -8.003 -4.614 Z" stroke-linecap="round" />
</g>
<g transform="matrix(0.79 0 0 0.79 819.73 13.4)"  >
<path style="stroke: none; stroke-width: 1; stroke-dasharray: none; stroke-linecap: butt; stroke-dashoffset: 0; stroke-linejoin: miter; stroke-miterlimit: 4; fill: rgb(206,206,206); fill-rule: nonzero; opacity: 1;"  transform=" translate(-1037.14, -13.02)" d="m 1037.136 4.799 l 7.203 4.11 v 8.221 l -7.203 4.11 l -7.203 -4.11 V 8.91 l 7.203 -4.111 m 0 -1.007 l -8.003 4.614 v 9.227 l 8.003 4.614 l 8.004 -4.614 V 8.406 l -8.004 -4.614 Z" stroke-linecap="round" />
</g>
<g transform="matrix(0.79 0 0 0.79 831.74 13.4)"  >
<path style="stroke: none; stroke-width: 1; stroke-dasharray: none; stroke-linecap: butt; stroke-dashoffset: 0; stroke-linejoin: miter; stroke-miterlimit: 4; fill: rgb(206,206,206); fill-rule: nonzero; opacity: 1;"  transform=" translate(-1052.34, -13.02)" d="m 1052.343 4.799 l 7.203 4.11 v 8.221 l -7.203 4.11 l -7.203 -4.11 V 8.91 l 7.203 -4.111 m 0 -1.007 l -8.004 4.614 v 9.227 l 8.004 4.614 l 8.003 -4.614 V 8.406 l -8.003 -4.614 Z" stroke-linecap="round" />
</g>
<g transform="matrix(0.79 0 0 0.79 843.76 13.4)"  >
<path style="stroke: none; stroke-width: 1; stroke-dasharray: none; stroke-linecap: butt; stroke-dashoffset: 0; stroke-linejoin: miter; stroke-miterlimit: 4; fill: rgb(206,206,206); fill-rule: nonzero; opacity: 1;"  transform=" translate(-1067.55, -13.02)" d="m 1067.55 4.799 l 7.202 4.11 v 8.221 l -7.203 4.11 l -7.203 -4.11 V 8.91 l 7.203 -4.111 m 0 -1.007 l -8.003 4.614 v 9.227 l 8.003 4.614 l 8.004 -4.614 V 8.406 l -8.004 -4.614 Z" stroke-linecap="round" />
</g>
<g transform="matrix(0.79 0 0 0.79 855.77 13.4)"  >
<path style="stroke: none; stroke-width: 1; stroke-dasharray: none; stroke-linecap: butt; stroke-dashoffset: 0; stroke-linejoin: miter; stroke-miterlimit: 4; fill: rgb(206,206,206); fill-rule: nonzero; opacity: 1;"  transform=" translate(-1082.76, -13.02)" d="m 1082.756 4.799 l 7.203 4.11 v 8.221 l -7.203 4.11 l -7.203 -4.11 V 8.91 l 7.203 -4.111 m 0 -1.007 l -8.004 4.614 v 9.227 l 8.004 4.614 l 8.003 -4.614 V 8.406 l -8.003 -4.614 Z" stroke-linecap="round" />
</g>
<g transform="matrix(0.79 0 0 0.79 867.78 13.4)"  >
<path style="stroke: none; stroke-width: 1; stroke-dasharray: none; stroke-linecap: butt; stroke-dashoffset: 0; stroke-linejoin: miter; stroke-miterlimit: 4; fill: rgb(206,206,206); fill-rule: nonzero; opacity: 1;"  transform=" translate(-1097.96, -13.02)" d="m 1097.962 4.799 l 7.203 4.11 v 8.221 l -7.203 4.11 l -7.203 -4.11 V 8.91 l 7.203 -4.111 m 0 -1.007 l -8.003 4.614 v 9.227 l 8.003 4.614 l 8.004 -4.614 V 8.406 l -8.004 -4.614 Z" stroke-linecap="round" />
</g>
<g transform="matrix(0.79 0 0 0.79 879.8 13.4)"  >
<path style="stroke: none; stroke-width: 1; stroke-dasharray: none; stroke-linecap: butt; stroke-dashoffset: 0; stroke-linejoin: miter; stroke-miterlimit: 4; fill: rgb(206,206,206); fill-rule: nonzero; opacity: 1;"  transform=" translate(-1113.17, -13.02)" d="m 1113.169 4.799 l 7.203 4.11 v 8.221 l -7.203 4.11 l -7.203 -4.11 V 8.91 l 7.203 -4.111 m 0 -1.007 l -8.004 4.614 v 9.227 l 8.004 4.614 l 8.003 -4.614 V 8.406 l -8.003 -4.614 Z" stroke-linecap="round" />
</g>
<g transform="matrix(0.79 0 0 0.79 891.81 13.4)"  >
<path style="stroke: none; stroke-width: 1; stroke-dasharray: none; stroke-linecap: butt; stroke-dashoffset: 0; stroke-linejoin: miter; stroke-miterlimit: 4; fill: rgb(206,206,206); fill-rule: nonzero; opacity: 1;"  transform=" translate(-1128.38, -13.02)" d="m 1128.375 4.799 l 7.203 4.11 v 8.221 l -7.203 4.11 l -7.203 -4.11 V 8.91 l 7.203 -4.111 m 0 -1.007 l -8.003 4.614 v 9.227 l 8.003 4.614 l 8.004 -4.614 V 8.406 l -8.004 -4.614 Z" stroke-linecap="round" />
</g>
<g transform="matrix(0.79 0 0 0.79 903.82 13.4)"  >
<path style="stroke: none; stroke-width: 1; stroke-dasharray: none; stroke-linecap: butt; stroke-dashoffset: 0; stroke-linejoin: miter; stroke-miterlimit: 4; fill: rgb(206,206,206); fill-rule: nonzero; opacity: 1;"  transform=" translate(-1143.58, -13.02)" d="m 1143.582 4.799 l 7.203 4.11 v 8.221 l -7.203 4.11 l -7.203 -4.11 V 8.91 l 7.203 -4.111 m 0 -1.007 l -8.004 4.614 v 9.227 l 8.004 4.614 l 8.003 -4.614 V 8.406 l -8.003 -4.614 Z" stroke-linecap="round" />
</g>
<g transform="matrix(0.79 0 0 0.79 915.84 13.4)"  >
<path style="stroke: none; stroke-width: 1; stroke-dasharray: none; stroke-linecap: butt; stroke-dashoffset: 0; stroke-linejoin: miter; stroke-miterlimit: 4; fill: rgb(206,206,206); fill-rule: nonzero; opacity: 1;"  transform=" translate(-1158.79, -13.02)" d="m 1158.788 4.799 l 7.203 4.11 v 8.221 l -7.203 4.11 l -7.203 -4.11 V 8.91 l 7.203 -4.111 m 0 -1.007 l -8.003 4.614 v 9.227 l 8.003 4.614 l 8.004 -4.614 V 8.406 l -8.004 -4.614 Z" stroke-linecap="round" />
</g>
<g transform="matrix(0.79 0 0 0.79 927.85 13.4)"  >
<path style="stroke: none; stroke-width: 1; stroke-dasharray: none; stroke-linecap: butt; stroke-dashoffset: 0; stroke-linejoin: miter; stroke-miterlimit: 4; fill: rgb(206,206,206); fill-rule: nonzero; opacity: 1;"  transform=" translate(-1173.99, -13.02)" d="m 1173.995 4.799 l 7.203 4.11 v 8.221 l -7.203 4.11 l -7.203 -4.11 V 8.91 l 7.203 -4.111 m 0 -1.007 l -8.004 4.614 v 9.227 l 8.004 4.614 l 8.003 -4.614 V 8.406 l -8.003 -4.614 Z" stroke-linecap="round" />
</g>
<g transform="matrix(0.79 0 0 0.79 939.86 13.4)"  >
<path style="stroke: none; stroke-width: 1; stroke-dasharray: none; stroke-linecap: butt; stroke-dashoffset: 0; stroke-linejoin: miter; stroke-miterlimit: 4; fill: rgb(206,206,206); fill-rule: nonzero; opacity: 1;"  transform=" translate(-1189.2, -13.02)" d="m 1189.201 4.799 l 7.204 4.11 v 8.221 l -7.204 4.11 l -7.203 -4.11 V 8.91 l 7.203 -4.111 m 0 -1.007 l -8.003 4.614 v 9.227 l 8.003 4.614 l 8.004 -4.614 V 8.406 l -8.004 -4.614 Z" stroke-linecap="round" />
</g>
<g transform="matrix(0.79 0 0 0.79 951.87 13.4)"  >
<path style="stroke: none; stroke-width: 1; stroke-dasharray: none; stroke-linecap: butt; stroke-dashoffset: 0; stroke-linejoin: miter; stroke-miterlimit: 4; fill: rgb(206,206,206); fill-rule: nonzero; opacity: 1;"  transform=" translate(-1204.41, -13.02)" d="m 1204.408 4.799 l 7.203 4.11 v 8.221 l -7.203 4.11 l -7.203 -4.11 V 8.91 l 7.203 -4.111 m 0 -1.007 l -8.003 4.614 v 9.227 l 8.003 4.614 l 8.003 -4.614 V 8.406 l -8.003 -4.614 Z" stroke-linecap="round" />
</g>
<g transform="matrix(0.79 0 0 0.79 963.89 13.4)"  >
<path style="stroke: none; stroke-width: 1; stroke-dasharray: none; stroke-linecap: butt; stroke-dashoffset: 0; stroke-linejoin: miter; stroke-miterlimit: 4; fill: rgb(206,206,206); fill-rule: nonzero; opacity: 1;"  transform=" translate(-1219.61, -13.02)" d="m 1219.615 4.799 l 7.203 4.11 v 8.221 l -7.203 4.11 l -7.204 -4.11 V 8.91 l 7.204 -4.111 m 0 -1.007 l -8.004 4.614 v 9.227 l 8.004 4.614 l 8.003 -4.614 V 8.406 l -8.003 -4.614 Z" stroke-linecap="round" />
</g>
<g transform="matrix(0.79 0 0 0.79 741.64 24.07)"  >
<path style="stroke: none; stroke-width: 1; stroke-dasharray: none; stroke-linecap: butt; stroke-dashoffset: 0; stroke-linejoin: miter; stroke-miterlimit: 4; fill: rgb(206,206,206); fill-rule: nonzero; opacity: 1;"  transform=" translate(-938.29, -26.53)" d="m 938.294 18.22 l 7.203 4.111 v 8.221 l -7.203 4.11 l -7.203 -4.11 v -8.221 l 7.203 -4.11 m 0 -0.923 l -8.004 4.614 v 9.227 l 8.004 4.614 l 8.003 -4.614 v -9.227 l -8.003 -4.614 Z" stroke-linecap="round" />
</g>
<g transform="matrix(0.79 0 0 0.79 753.66 24.07)"  >
<path style="stroke: none; stroke-width: 1; stroke-dasharray: none; stroke-linecap: butt; stroke-dashoffset: 0; stroke-linejoin: miter; stroke-miterlimit: 4; fill: rgb(206,206,206); fill-rule: nonzero; opacity: 1;"  transform=" translate(-953.5, -26.53)" d="m 953.5 18.22 l 7.203 4.111 v 8.221 l -7.203 4.11 l -7.203 -4.11 v -8.221 l 7.203 -4.11 m 0 -0.923 l -8.003 4.614 v 9.227 l 8.003 4.614 l 8.004 -4.614 v -9.227 l -8.004 -4.614 Z" stroke-linecap="round" />
</g>
<g transform="matrix(0.79 0 0 0.79 765.67 24.07)"  >
<path style="stroke: none; stroke-width: 1; stroke-dasharray: none; stroke-linecap: butt; stroke-dashoffset: 0; stroke-linejoin: miter; stroke-miterlimit: 4; fill: rgb(206,206,206); fill-rule: nonzero; opacity: 1;"  transform=" translate(-968.71, -26.53)" d="m 968.707 18.22 l 7.203 4.111 v 8.221 l -7.203 4.11 l -7.203 -4.11 v -8.221 l 7.203 -4.11 m 0 -0.923 l -8.004 4.614 v 9.227 l 8.004 4.614 l 8.003 -4.614 v -9.227 l -8.003 -4.614 Z" stroke-linecap="round" />
</g>
<g transform="matrix(0.79 0 0 0.79 777.68 24.07)"  >
<path style="stroke: none; stroke-width: 1; stroke-dasharray: none; stroke-linecap: butt; stroke-dashoffset: 0; stroke-linejoin: miter; stroke-miterlimit: 4; fill: rgb(206,206,206); fill-rule: nonzero; opacity: 1;"  transform=" translate(-983.91, -26.53)" d="m 983.913 18.22 l 7.203 4.111 v 8.221 l -7.203 4.11 l -7.203 -4.11 v -8.221 l 7.203 -4.11 m 0 -0.923 l -8.003 4.614 v 9.227 l 8.003 4.614 l 8.004 -4.614 v -9.227 l -8.004 -4.614 Z" stroke-linecap="round" />
</g>
<g transform="matrix(0.79 0 0 0.79 789.7 24.07)"  >
<path style="stroke: none; stroke-width: 1; stroke-dasharray: none; stroke-linecap: butt; stroke-dashoffset: 0; stroke-linejoin: miter; stroke-miterlimit: 4; fill: rgb(206,206,206); fill-rule: nonzero; opacity: 1;"  transform=" translate(-999.12, -26.53)" d="m 999.12 18.22 l 7.203 4.111 v 8.221 l -7.203 4.11 l -7.203 -4.11 v -8.221 l 7.203 -4.11 m 0 -0.923 l -8.004 4.614 v 9.227 l 8.004 4.614 l 8.003 -4.614 v -9.227 l -8.003 -4.614 Z" stroke-linecap="round" />
</g>
<g transform="matrix(0.79 0 0 0.79 801.71 24.07)"  >
<path style="stroke: none; stroke-width: 1; stroke-dasharray: none; stroke-linecap: butt; stroke-dashoffset: 0; stroke-linejoin: miter; stroke-miterlimit: 4; fill: rgb(206,206,206); fill-rule: nonzero; opacity: 1;"  transform=" translate(-1014.33, -26.53)" d="m 1014.326 18.22 l 7.203 4.111 v 8.221 l -7.203 4.11 l -7.203 -4.11 v -8.221 l 7.203 -4.11 m 0 -0.923 l -8.003 4.614 v 9.227 l 8.003 4.614 l 8.004 -4.614 v -9.227 l -8.004 -4.614 Z" stroke-linecap="round" />
</g>
<g transform="matrix(0.79 0 0 0.79 813.72 24.07)"  >
<path style="stroke: none; stroke-width: 1; stroke-dasharray: none; stroke-linecap: butt; stroke-dashoffset: 0; stroke-linejoin: miter; stroke-miterlimit: 4; fill: rgb(206,206,206); fill-rule: nonzero; opacity: 1;"  transform=" translate(-1029.53, -26.53)" d="m 1029.533 18.22 l 7.203 4.111 v 8.221 l -7.203 4.11 l -7.203 -4.11 v -8.221 l 7.203 -4.11 m 0 -0.923 l -8.004 4.614 v 9.227 l 8.004 4.614 l 8.003 -4.614 v -9.227 l -8.003 -4.614 Z" stroke-linecap="round" />
</g>
<g transform="matrix(0.79 0 0 0.79 825.74 24.07)"  >
<path style="stroke: none; stroke-width: 1; stroke-dasharray: none; stroke-linecap: butt; stroke-dashoffset: 0; stroke-linejoin: miter; stroke-miterlimit: 4; fill: rgb(206,206,206); fill-rule: nonzero; opacity: 1;"  transform=" translate(-1044.74, -26.53)" d="m 1044.74 18.22 l 7.202 4.111 v 8.221 l -7.203 4.11 l -7.203 -4.11 v -8.221 l 7.203 -4.11 m 0 -0.923 l -8.003 4.614 v 9.227 l 8.003 4.614 l 8.004 -4.614 v -9.227 l -8.004 -4.614 Z" stroke-linecap="round" />
</g>
<g transform="matrix(0.79 0 0 0.79 837.75 24.07)"  >
<path style="stroke: none; stroke-width: 1; stroke-dasharray: none; stroke-linecap: butt; stroke-dashoffset: 0; stroke-linejoin: miter; stroke-miterlimit: 4; fill: rgb(206,206,206); fill-rule: nonzero; opacity: 1;"  transform=" translate(-1059.95, -26.53)" d="m 1059.946 18.22 l 7.203 4.111 v 8.221 l -7.203 4.11 l -7.203 -4.11 v -8.221 l 7.203 -4.11 m 0 -0.923 l -8.004 4.614 v 9.227 l 8.004 4.614 l 8.003 -4.614 v -9.227 l -8.003 -4.614 Z" stroke-linecap="round" />
</g>
<g transform="matrix(0.79 0 0 0.79 849.76 24.07)"  >
<path style="stroke: none; stroke-width: 1; stroke-dasharray: none; stroke-linecap: butt; stroke-dashoffset: 0; stroke-linejoin: miter; stroke-miterlimit: 4; fill: rgb(206,206,206); fill-rule: nonzero; opacity: 1;"  transform=" translate(-1075.15, -26.53)" d="m 1075.152 18.22 l 7.203 4.111 v 8.221 l -7.203 4.11 l -7.203 -4.11 v -8.221 l 7.203 -4.11 m 0 -0.923 l -8.003 4.614 v 9.227 l 8.003 4.614 l 8.004 -4.614 v -9.227 l -8.004 -4.614 Z" stroke-linecap="round" />
</g>
<g transform="matrix(0.79 0 0 0.79 861.78 24.07)"  >
<path style="stroke: none; stroke-width: 1; stroke-dasharray: none; stroke-linecap: butt; stroke-dashoffset: 0; stroke-linejoin: miter; stroke-miterlimit: 4; fill: rgb(206,206,206); fill-rule: nonzero; opacity: 1;"  transform=" translate(-1090.36, -26.53)" d="m 1090.359 18.22 l 7.203 4.111 v 8.221 l -7.203 4.11 l -7.203 -4.11 v -8.221 l 7.203 -4.11 m 0 -0.923 l -8.004 4.614 v 9.227 l 8.004 4.614 l 8.003 -4.614 v -9.227 l -8.003 -4.614 Z" stroke-linecap="round" />
</g>
<g transform="matrix(0.79 0 0 0.79 873.79 24.07)"  >
<path style="stroke: none; stroke-width: 1; stroke-dasharray: none; stroke-linecap: butt; stroke-dashoffset: 0; stroke-linejoin: miter; stroke-miterlimit: 4; fill: rgb(206,206,206); fill-rule: nonzero; opacity: 1;"  transform=" translate(-1105.57, -26.53)" d="m 1105.565 18.22 l 7.204 4.111 v 8.221 l -7.204 4.11 l -7.203 -4.11 v -8.221 l 7.203 -4.11 m 0 -0.923 l -8.003 4.614 v 9.227 l 8.003 4.614 l 8.004 -4.614 v -9.227 l -8.004 -4.614 Z" stroke-linecap="round" />
</g>
<g transform="matrix(0.79 0 0 0.79 885.8 24.07)"  >
<path style="stroke: none; stroke-width: 1; stroke-dasharray: none; stroke-linecap: butt; stroke-dashoffset: 0; stroke-linejoin: miter; stroke-miterlimit: 4; fill: rgb(206,206,206); fill-rule: nonzero; opacity: 1;"  transform=" translate(-1120.77, -26.53)" d="m 1120.772 18.22 l 7.203 4.111 v 8.221 l -7.203 4.11 l -7.203 -4.11 v -8.221 l 7.203 -4.11 m 0 -0.923 l -8.003 4.614 v 9.227 l 8.003 4.614 l 8.003 -4.614 v -9.227 l -8.003 -4.614 Z" stroke-linecap="round" />
</g>
<g transform="matrix(0.79 0 0 0.79 897.82 24.07)"  >
<path style="stroke: none; stroke-width: 1; stroke-dasharray: none; stroke-linecap: butt; stroke-dashoffset: 0; stroke-linejoin: miter; stroke-miterlimit: 4; fill: rgb(206,206,206); fill-rule: nonzero; opacity: 1;"  transform=" translate(-1135.98, -26.53)" d="m 1135.979 18.22 l 7.203 4.111 v 8.221 l -7.203 4.11 l -7.204 -4.11 v -8.221 l 7.204 -4.11 m 0 -0.923 l -8.004 4.614 v 9.227 l 8.004 4.614 l 8.003 -4.614 v -9.227 l -8.003 -4.614 Z" stroke-linecap="round" />
</g>
<g transform="matrix(0.79 0 0 0.79 909.83 24.07)"  >
<path style="stroke: none; stroke-width: 1; stroke-dasharray: none; stroke-linecap: butt; stroke-dashoffset: 0; stroke-linejoin: miter; stroke-miterlimit: 4; fill: rgb(206,206,206); fill-rule: nonzero; opacity: 1;"  transform=" translate(-1151.18, -26.53)" d="m 1151.185 18.22 l 7.203 4.111 v 8.221 l -7.203 4.11 l -7.203 -4.11 v -8.221 l 7.203 -4.11 m 0 -0.923 l -8.003 4.614 v 9.227 l 8.003 4.614 l 8.003 -4.614 v -9.227 l -8.003 -4.614 Z" stroke-linecap="round" />
</g>
<g transform="matrix(0.79 0 0 0.79 921.84 24.07)"  >
<path style="stroke: none; stroke-width: 1; stroke-dasharray: none; stroke-linecap: butt; stroke-dashoffset: 0; stroke-linejoin: miter; stroke-miterlimit: 4; fill: rgb(206,206,206); fill-rule: nonzero; opacity: 1;"  transform=" translate(-1166.39, -26.53)" d="m 1166.392 18.22 l 7.203 4.111 v 8.221 l -7.203 4.11 l -7.204 -4.11 v -8.221 l 7.204 -4.11 m 0 -0.923 l -8.004 4.614 v 9.227 l 8.004 4.614 l 8.003 -4.614 v -9.227 l -8.003 -4.614 Z" stroke-linecap="round" />
</g>
<g transform="matrix(0.79 0 0 0.79 933.86 24.07)"  >
<path style="stroke: none; stroke-width: 1; stroke-dasharray: none; stroke-linecap: butt; stroke-dashoffset: 0; stroke-linejoin: miter; stroke-miterlimit: 4; fill: rgb(206,206,206); fill-rule: nonzero; opacity: 1;"  transform=" translate(-1181.6, -26.53)" d="m 1181.598 18.22 l 7.203 4.111 v 8.221 l -7.203 4.11 l -7.203 -4.11 v -8.221 l 7.203 -4.11 m 0 -0.923 l -8.003 4.614 v 9.227 l 8.003 4.614 l 8.004 -4.614 v -9.227 l -8.004 -4.614 Z" stroke-linecap="round" />
</g>
<g transform="matrix(0.79 0 0 0.79 945.87 24.07)"  >
<path style="stroke: none; stroke-width: 1; stroke-dasharray: none; stroke-linecap: butt; stroke-dashoffset: 0; stroke-linejoin: miter; stroke-miterlimit: 4; fill: rgb(206,206,206); fill-rule: nonzero; opacity: 1;"  transform=" translate(-1196.8, -26.53)" d="m 1196.805 18.22 l 7.203 4.111 v 8.221 l -7.203 4.11 l -7.203 -4.11 v -8.221 l 7.203 -4.11 m 0 -0.923 l -8.004 4.614 v 9.227 l 8.004 4.614 l 8.003 -4.614 v -9.227 l -8.003 -4.614 Z" stroke-linecap="round" />
</g>
<g transform="matrix(0.79 0 0 0.79 957.88 24.07)"  >
<path style="stroke: none; stroke-width: 1; stroke-dasharray: none; stroke-linecap: butt; stroke-dashoffset: 0; stroke-linejoin: miter; stroke-miterlimit: 4; fill: rgb(206,206,206); fill-rule: nonzero; opacity: 1;"  transform=" translate(-1212.01, -26.53)" d="m 1212.011 18.22 l 7.203 4.111 v 8.221 l -7.203 4.11 l -7.203 -4.11 v -8.221 l 7.203 -4.11 m 0 -0.923 l -8.003 4.614 v 9.227 l 8.003 4.614 l 8.004 -4.614 v -9.227 l -8.004 -4.614 Z" stroke-linecap="round" />
</g>
<g transform="matrix(0.79 0 0 0.79 969.89 24.07)"  >
<path style="stroke: none; stroke-width: 1; stroke-dasharray: none; stroke-linecap: butt; stroke-dashoffset: 0; stroke-linejoin: miter; stroke-miterlimit: 4; fill: rgb(206,206,206); fill-rule: nonzero; opacity: 1;"  transform=" translate(-1227.22, -26.53)" d="m 1227.218 18.22 l 7.203 4.111 v 8.221 l -7.203 4.11 l -7.203 -4.11 v -8.221 l 7.203 -4.11 m 0 -0.923 l -8.004 4.614 v 9.227 l 8.004 4.614 l 8.003 -4.614 v -9.227 l -8.003 -4.614 Z" stroke-linecap="round" />
</g>
<g transform="matrix(0.79 0 0 0.79 735.64 34.81)"  >
<path style="stroke: none; stroke-width: 1; stroke-dasharray: none; stroke-linecap: butt; stroke-dashoffset: 0; stroke-linejoin: miter; stroke-miterlimit: 4; fill: rgb(206,206,206); fill-rule: nonzero; opacity: 1;"  transform=" translate(-930.69, -40.11)" d="m 930.69 31.81 l 7.204 4.11 v 8.222 l -7.204 4.11 l -7.203 -4.11 V 35.92 l 7.203 -4.11 m 0 -0.923 l -8.003 4.613 v 9.228 l 8.003 4.614 l 8.004 -4.614 v -9.228 l -8.004 -4.613 Z" stroke-linecap="round" />
</g>
<g transform="matrix(0.79 0 0 0.79 747.65 34.81)"  >
<path style="stroke: none; stroke-width: 1; stroke-dasharray: none; stroke-linecap: butt; stroke-dashoffset: 0; stroke-linejoin: miter; stroke-miterlimit: 4; fill: rgb(206,206,206); fill-rule: nonzero; opacity: 1;"  transform=" translate(-945.9, -40.11)" d="m 945.897 31.81 l 7.203 4.11 v 8.222 l -7.203 4.11 l -7.203 -4.11 V 35.92 l 7.203 -4.11 m 0 -0.923 l -8.003 4.613 v 9.228 l 8.003 4.614 l 8.003 -4.614 v -9.228 l -8.003 -4.613 Z" stroke-linecap="round" />
</g>
<g transform="matrix(0.79 0 0 0.79 759.66 34.81)"  >
<path style="stroke: none; stroke-width: 1; stroke-dasharray: none; stroke-linecap: butt; stroke-dashoffset: 0; stroke-linejoin: miter; stroke-miterlimit: 4; fill: rgb(206,206,206); fill-rule: nonzero; opacity: 1;"  transform=" translate(-961.1, -40.11)" d="m 961.103 31.81 l 7.204 4.11 v 8.222 l -7.204 4.11 l -7.203 -4.11 V 35.92 l 7.203 -4.11 m 0 -0.923 L 953.1 35.5 v 9.228 l 8.003 4.614 l 8.004 -4.614 v -9.228 l -8.004 -4.613 Z" stroke-linecap="round" />
</g>
<g transform="matrix(0.79 0 0 0.79 771.68 34.81)"  >
<path style="stroke: none; stroke-width: 1; stroke-dasharray: none; stroke-linecap: butt; stroke-dashoffset: 0; stroke-linejoin: miter; stroke-miterlimit: 4; fill: rgb(206,206,206); fill-rule: nonzero; opacity: 1;"  transform=" translate(-976.31, -40.11)" d="m 976.31 31.81 l 7.203 4.11 v 8.222 l -7.203 4.11 l -7.203 -4.11 V 35.92 l 7.203 -4.11 m 0 -0.923 l -8.003 4.613 v 9.228 l 8.003 4.614 l 8.003 -4.614 v -9.228 l -8.003 -4.613 Z" stroke-linecap="round" />
</g>
<g transform="matrix(0.79 0 0 0.79 783.69 34.81)"  >
<path style="stroke: none; stroke-width: 1; stroke-dasharray: none; stroke-linecap: butt; stroke-dashoffset: 0; stroke-linejoin: miter; stroke-miterlimit: 4; fill: rgb(206,206,206); fill-rule: nonzero; opacity: 1;"  transform=" translate(-991.52, -40.11)" d="m 991.517 31.81 l 7.203 4.11 v 8.222 l -7.203 4.11 l -7.204 -4.11 V 35.92 l 7.204 -4.11 m 0 -0.923 l -8.004 4.613 v 9.228 l 8.004 4.614 l 8.003 -4.614 v -9.228 l -8.003 -4.613 Z" stroke-linecap="round" />
</g>
<g transform="matrix(0.79 0 0 0.79 795.7 34.81)"  >
<path style="stroke: none; stroke-width: 1; stroke-dasharray: none; stroke-linecap: butt; stroke-dashoffset: 0; stroke-linejoin: miter; stroke-miterlimit: 4; fill: rgb(206,206,206); fill-rule: nonzero; opacity: 1;"  transform=" translate(-1006.72, -40.11)" d="m 1006.723 31.81 l 7.203 4.11 v 8.222 l -7.203 4.11 l -7.203 -4.11 V 35.92 l 7.203 -4.11 m 0 -0.923 L 998.72 35.5 v 9.228 l 8.003 4.614 l 8.004 -4.614 v -9.228 l -8.004 -4.613 Z" stroke-linecap="round" />
</g>
<g transform="matrix(0.79 0 0 0.79 807.72 34.81)"  >
<path style="stroke: none; stroke-width: 1; stroke-dasharray: none; stroke-linecap: butt; stroke-dashoffset: 0; stroke-linejoin: miter; stroke-miterlimit: 4; fill: rgb(206,206,206); fill-rule: nonzero; opacity: 1;"  transform=" translate(-1021.93, -40.11)" d="m 1021.93 31.81 l 7.203 4.11 v 8.222 l -7.203 4.11 l -7.203 -4.11 V 35.92 l 7.203 -4.11 m 0 -0.923 l -8.004 4.613 v 9.228 l 8.004 4.614 l 8.003 -4.614 v -9.228 l -8.003 -4.613 Z" stroke-linecap="round" />
</g>
<g transform="matrix(0.79 0 0 0.79 819.73 34.81)"  >
<path style="stroke: none; stroke-width: 1; stroke-dasharray: none; stroke-linecap: butt; stroke-dashoffset: 0; stroke-linejoin: miter; stroke-miterlimit: 4; fill: rgb(206,206,206); fill-rule: nonzero; opacity: 1;"  transform=" translate(-1037.14, -40.11)" d="m 1037.136 31.81 l 7.203 4.11 v 8.222 l -7.203 4.11 l -7.203 -4.11 V 35.92 l 7.203 -4.11 m 0 -0.923 l -8.003 4.613 v 9.228 l 8.003 4.614 l 8.004 -4.614 v -9.228 l -8.004 -4.613 Z" stroke-linecap="round" />
</g>
<g transform="matrix(0.79 0 0 0.79 831.74 34.81)"  >
<path style="stroke: none; stroke-width: 1; stroke-dasharray: none; stroke-linecap: butt; stroke-dashoffset: 0; stroke-linejoin: miter; stroke-miterlimit: 4; fill: rgb(206,206,206); fill-rule: nonzero; opacity: 1;"  transform=" translate(-1052.34, -40.11)" d="m 1052.343 31.81 l 7.203 4.11 v 8.222 l -7.203 4.11 l -7.203 -4.11 V 35.92 l 7.203 -4.11 m 0 -0.923 l -8.004 4.613 v 9.228 l 8.004 4.614 l 8.003 -4.614 v -9.228 l -8.003 -4.613 Z" stroke-linecap="round" />
</g>
<g transform="matrix(0.79 0 0 0.79 843.76 34.81)"  >
<path style="stroke: none; stroke-width: 1; stroke-dasharray: none; stroke-linecap: butt; stroke-dashoffset: 0; stroke-linejoin: miter; stroke-miterlimit: 4; fill: rgb(206,206,206); fill-rule: nonzero; opacity: 1;"  transform=" translate(-1067.55, -40.11)" d="m 1067.55 31.81 l 7.202 4.11 v 8.222 l -7.203 4.11 l -7.203 -4.11 V 35.92 l 7.203 -4.11 m 0 -0.923 l -8.003 4.613 v 9.228 l 8.003 4.614 l 8.004 -4.614 v -9.228 l -8.004 -4.613 Z" stroke-linecap="round" />
</g>
<g transform="matrix(0.79 0 0 0.79 855.77 34.81)"  >
<path style="stroke: none; stroke-width: 1; stroke-dasharray: none; stroke-linecap: butt; stroke-dashoffset: 0; stroke-linejoin: miter; stroke-miterlimit: 4; fill: rgb(206,206,206); fill-rule: nonzero; opacity: 1;"  transform=" translate(-1082.76, -40.11)" d="m 1082.756 31.81 l 7.203 4.11 v 8.222 l -7.203 4.11 l -7.203 -4.11 V 35.92 l 7.203 -4.11 m 0 -0.923 l -8.004 4.613 v 9.228 l 8.004 4.614 l 8.003 -4.614 v -9.228 l -8.003 -4.613 Z" stroke-linecap="round" />
</g>
<g transform="matrix(0.79 0 0 0.79 867.78 34.81)"  >
<path style="stroke: none; stroke-width: 1; stroke-dasharray: none; stroke-linecap: butt; stroke-dashoffset: 0; stroke-linejoin: miter; stroke-miterlimit: 4; fill: rgb(206,206,206); fill-rule: nonzero; opacity: 1;"  transform=" translate(-1097.96, -40.11)" d="m 1097.962 31.81 l 7.203 4.11 v 8.222 l -7.203 4.11 l -7.203 -4.11 V 35.92 l 7.203 -4.11 m 0 -0.923 l -8.003 4.613 v 9.228 l 8.003 4.614 l 8.004 -4.614 v -9.228 l -8.004 -4.613 Z" stroke-linecap="round" />
</g>
<g transform="matrix(0.79 0 0 0.79 879.8 34.81)"  >
<path style="stroke: none; stroke-width: 1; stroke-dasharray: none; stroke-linecap: butt; stroke-dashoffset: 0; stroke-linejoin: miter; stroke-miterlimit: 4; fill: rgb(206,206,206); fill-rule: nonzero; opacity: 1;"  transform=" translate(-1113.17, -40.11)" d="m 1113.169 31.81 l 7.203 4.11 v 8.222 l -7.203 4.11 l -7.203 -4.11 V 35.92 l 7.203 -4.11 m 0 -0.923 l -8.004 4.613 v 9.228 l 8.004 4.614 l 8.003 -4.614 v -9.228 l -8.003 -4.613 Z" stroke-linecap="round" />
</g>
<g transform="matrix(0.79 0 0 0.79 891.81 34.81)"  >
<path style="stroke: none; stroke-width: 1; stroke-dasharray: none; stroke-linecap: butt; stroke-dashoffset: 0; stroke-linejoin: miter; stroke-miterlimit: 4; fill: rgb(206,206,206); fill-rule: nonzero; opacity: 1;"  transform=" translate(-1128.38, -40.11)" d="m 1128.375 31.81 l 7.203 4.11 v 8.222 l -7.203 4.11 l -7.203 -4.11 V 35.92 l 7.203 -4.11 m 0 -0.923 l -8.003 4.613 v 9.228 l 8.003 4.614 l 8.004 -4.614 v -9.228 l -8.004 -4.613 Z" stroke-linecap="round" />
</g>
<g transform="matrix(0.79 0 0 0.79 903.82 34.81)"  >
<path style="stroke: none; stroke-width: 1; stroke-dasharray: none; stroke-linecap: butt; stroke-dashoffset: 0; stroke-linejoin: miter; stroke-miterlimit: 4; fill: rgb(206,206,206); fill-rule: nonzero; opacity: 1;"  transform=" translate(-1143.58, -40.11)" d="m 1143.582 31.81 l 7.203 4.11 v 8.222 l -7.203 4.11 l -7.203 -4.11 V 35.92 l 7.203 -4.11 m 0 -0.923 l -8.004 4.613 v 9.228 l 8.004 4.614 l 8.003 -4.614 v -9.228 l -8.003 -4.613 Z" stroke-linecap="round" />
</g>
<g transform="matrix(0.79 0 0 0.79 915.84 34.81)"  >
<path style="stroke: none; stroke-width: 1; stroke-dasharray: none; stroke-linecap: butt; stroke-dashoffset: 0; stroke-linejoin: miter; stroke-miterlimit: 4; fill: rgb(206,206,206); fill-rule: nonzero; opacity: 1;"  transform=" translate(-1158.79, -40.11)" d="m 1158.788 31.81 l 7.203 4.11 v 8.222 l -7.203 4.11 l -7.203 -4.11 V 35.92 l 7.203 -4.11 m 0 -0.923 l -8.003 4.613 v 9.228 l 8.003 4.614 l 8.004 -4.614 v -9.228 l -8.004 -4.613 Z" stroke-linecap="round" />
</g>
<g transform="matrix(0.79 0 0 0.79 927.85 34.81)"  >
<path style="stroke: none; stroke-width: 1; stroke-dasharray: none; stroke-linecap: butt; stroke-dashoffset: 0; stroke-linejoin: miter; stroke-miterlimit: 4; fill: rgb(206,206,206); fill-rule: nonzero; opacity: 1;"  transform=" translate(-1173.99, -40.11)" d="m 1173.995 31.81 l 7.203 4.11 v 8.222 l -7.203 4.11 l -7.203 -4.11 V 35.92 l 7.203 -4.11 m 0 -0.923 l -8.004 4.613 v 9.228 l 8.004 4.614 l 8.003 -4.614 v -9.228 l -8.003 -4.613 Z" stroke-linecap="round" />
</g>
<g transform="matrix(0.79 0 0 0.79 939.86 34.81)"  >
<path style="stroke: none; stroke-width: 1; stroke-dasharray: none; stroke-linecap: butt; stroke-dashoffset: 0; stroke-linejoin: miter; stroke-miterlimit: 4; fill: rgb(206,206,206); fill-rule: nonzero; opacity: 1;"  transform=" translate(-1189.2, -40.11)" d="m 1189.201 31.81 l 7.204 4.11 v 8.222 l -7.204 4.11 l -7.203 -4.11 V 35.92 l 7.203 -4.11 m 0 -0.923 l -8.003 4.613 v 9.228 l 8.003 4.614 l 8.004 -4.614 v -9.228 l -8.004 -4.613 Z" stroke-linecap="round" />
</g>
<g transform="matrix(0.79 0 0 0.79 951.87 34.81)"  >
<path style="stroke: none; stroke-width: 1; stroke-dasharray: none; stroke-linecap: butt; stroke-dashoffset: 0; stroke-linejoin: miter; stroke-miterlimit: 4; fill: rgb(206,206,206); fill-rule: nonzero; opacity: 1;"  transform=" translate(-1204.41, -40.11)" d="m 1204.408 31.81 l 7.203 4.11 v 8.222 l -7.203 4.11 l -7.203 -4.11 V 35.92 l 7.203 -4.11 m 0 -0.923 l -8.003 4.613 v 9.228 l 8.003 4.614 l 8.003 -4.614 v -9.228 l -8.003 -4.613 Z" stroke-linecap="round" />
</g>
<g transform="matrix(0.79 0 0 0.79 963.89 34.81)"  >
<path style="stroke: none; stroke-width: 1; stroke-dasharray: none; stroke-linecap: butt; stroke-dashoffset: 0; stroke-linejoin: miter; stroke-miterlimit: 4; fill: rgb(206,206,206); fill-rule: nonzero; opacity: 1;"  transform=" translate(-1219.61, -40.11)" d="m 1219.615 31.81 l 7.203 4.11 v 8.222 l -7.203 4.11 l -7.204 -4.11 V 35.92 l 7.204 -4.11 m 0 -0.923 l -8.004 4.613 v 9.228 l 8.004 4.614 l 8.003 -4.614 v -9.228 l -8.003 -4.613 Z" stroke-linecap="round" />
</g>
<g transform="matrix(0.79 0 0 0.79 741.64 45.41)"  >
<path style="stroke: none; stroke-width: 1; stroke-dasharray: none; stroke-linecap: butt; stroke-dashoffset: 0; stroke-linejoin: miter; stroke-miterlimit: 4; fill: rgb(206,206,206); fill-rule: nonzero; opacity: 1;"  transform=" translate(-938.29, -53.54)" d="m 938.294 45.316 l 7.203 4.11 v 8.222 l -7.203 4.11 l -7.203 -4.11 v -8.221 l 7.203 -4.11 m 0 -1.007 l -8.004 4.613 v 9.228 l 8.004 4.614 l 8.003 -4.614 v -9.228 l -8.003 -4.613 Z" stroke-linecap="round" />
</g>
<g transform="matrix(0.79 0 0 0.79 753.66 45.41)"  >
<path style="stroke: none; stroke-width: 1; stroke-dasharray: none; stroke-linecap: butt; stroke-dashoffset: 0; stroke-linejoin: miter; stroke-miterlimit: 4; fill: rgb(206,206,206); fill-rule: nonzero; opacity: 1;"  transform=" translate(-953.5, -53.54)" d="m 953.5 45.316 l 7.203 4.11 v 8.222 l -7.203 4.11 l -7.203 -4.11 v -8.221 l 7.203 -4.11 m 0 -1.007 l -8.003 4.613 v 9.228 l 8.003 4.614 l 8.004 -4.614 v -9.228 L 953.5 44.31 Z" stroke-linecap="round" />
</g>
<g transform="matrix(0.79 0 0 0.79 765.67 45.41)"  >
<path style="stroke: none; stroke-width: 1; stroke-dasharray: none; stroke-linecap: butt; stroke-dashoffset: 0; stroke-linejoin: miter; stroke-miterlimit: 4; fill: rgb(206,206,206); fill-rule: nonzero; opacity: 1;"  transform=" translate(-968.71, -53.54)" d="m 968.707 45.316 l 7.203 4.11 v 8.222 l -7.203 4.11 l -7.203 -4.11 v -8.221 l 7.203 -4.11 m 0 -1.007 l -8.004 4.613 v 9.228 l 8.004 4.614 l 8.003 -4.614 v -9.228 l -8.003 -4.613 Z" stroke-linecap="round" />
</g>
<g transform="matrix(0.79 0 0 0.79 777.68 45.41)"  >
<path style="stroke: none; stroke-width: 1; stroke-dasharray: none; stroke-linecap: butt; stroke-dashoffset: 0; stroke-linejoin: miter; stroke-miterlimit: 4; fill: rgb(206,206,206); fill-rule: nonzero; opacity: 1;"  transform=" translate(-983.91, -53.54)" d="m 983.913 45.316 l 7.203 4.11 v 8.222 l -7.203 4.11 l -7.203 -4.11 v -8.221 l 7.203 -4.11 m 0 -1.007 l -8.003 4.613 v 9.228 l 8.003 4.614 l 8.004 -4.614 v -9.228 l -8.004 -4.613 Z" stroke-linecap="round" />
</g>
<g transform="matrix(0.79 0 0 0.79 789.7 45.41)"  >
<path style="stroke: none; stroke-width: 1; stroke-dasharray: none; stroke-linecap: butt; stroke-dashoffset: 0; stroke-linejoin: miter; stroke-miterlimit: 4; fill: rgb(206,206,206); fill-rule: nonzero; opacity: 1;"  transform=" translate(-999.12, -53.54)" d="m 999.12 45.316 l 7.203 4.11 v 8.222 l -7.203 4.11 l -7.203 -4.11 v -8.221 l 7.203 -4.11 m 0 -1.007 l -8.004 4.613 v 9.228 l 8.004 4.614 l 8.003 -4.614 v -9.228 l -8.003 -4.613 Z" stroke-linecap="round" />
</g>
<g transform="matrix(0.79 0 0 0.79 801.71 45.41)"  >
<path style="stroke: none; stroke-width: 1; stroke-dasharray: none; stroke-linecap: butt; stroke-dashoffset: 0; stroke-linejoin: miter; stroke-miterlimit: 4; fill: rgb(206,206,206); fill-rule: nonzero; opacity: 1;"  transform=" translate(-1014.33, -53.54)" d="m 1014.326 45.316 l 7.203 4.11 v 8.222 l -7.203 4.11 l -7.203 -4.11 v -8.221 l 7.203 -4.11 m 0 -1.007 l -8.003 4.613 v 9.228 l 8.003 4.614 l 8.004 -4.614 v -9.228 l -8.004 -4.613 Z" stroke-linecap="round" />
</g>
<g transform="matrix(0.79 0 0 0.79 813.72 45.41)"  >
<path style="stroke: none; stroke-width: 1; stroke-dasharray: none; stroke-linecap: butt; stroke-dashoffset: 0; stroke-linejoin: miter; stroke-miterlimit: 4; fill: rgb(206,206,206); fill-rule: nonzero; opacity: 1;"  transform=" translate(-1029.53, -53.54)" d="m 1029.533 45.316 l 7.203 4.11 v 8.222 l -7.203 4.11 l -7.203 -4.11 v -8.221 l 7.203 -4.11 m 0 -1.007 l -8.004 4.613 v 9.228 l 8.004 4.614 l 8.003 -4.614 v -9.228 l -8.003 -4.613 Z" stroke-linecap="round" />
</g>
<g transform="matrix(0.79 0 0 0.79 825.74 45.41)"  >
<path style="stroke: none; stroke-width: 1; stroke-dasharray: none; stroke-linecap: butt; stroke-dashoffset: 0; stroke-linejoin: miter; stroke-miterlimit: 4; fill: rgb(206,206,206); fill-rule: nonzero; opacity: 1;"  transform=" translate(-1044.74, -53.54)" d="m 1044.74 45.316 l 7.202 4.11 v 8.222 l -7.203 4.11 l -7.203 -4.11 v -8.221 l 7.203 -4.11 m 0 -1.007 l -8.003 4.613 v 9.228 l 8.003 4.614 l 8.004 -4.614 v -9.228 l -8.004 -4.613 Z" stroke-linecap="round" />
</g>
<g transform="matrix(0.79 0 0 0.79 837.75 45.41)"  >
<path style="stroke: none; stroke-width: 1; stroke-dasharray: none; stroke-linecap: butt; stroke-dashoffset: 0; stroke-linejoin: miter; stroke-miterlimit: 4; fill: rgb(206,206,206); fill-rule: nonzero; opacity: 1;"  transform=" translate(-1059.95, -53.54)" d="m 1059.946 45.316 l 7.203 4.11 v 8.222 l -7.203 4.11 l -7.203 -4.11 v -8.221 l 7.203 -4.11 m 0 -1.007 l -8.004 4.613 v 9.228 l 8.004 4.614 l 8.003 -4.614 v -9.228 l -8.003 -4.613 Z" stroke-linecap="round" />
</g>
<g transform="matrix(0.79 0 0 0.79 849.76 45.41)"  >
<path style="stroke: none; stroke-width: 1; stroke-dasharray: none; stroke-linecap: butt; stroke-dashoffset: 0; stroke-linejoin: miter; stroke-miterlimit: 4; fill: rgb(206,206,206); fill-rule: nonzero; opacity: 1;"  transform=" translate(-1075.15, -53.54)" d="m 1075.152 45.316 l 7.203 4.11 v 8.222 l -7.203 4.11 l -7.203 -4.11 v -8.221 l 7.203 -4.11 m 0 -1.007 l -8.003 4.613 v 9.228 l 8.003 4.614 l 8.004 -4.614 v -9.228 l -8.004 -4.613 Z" stroke-linecap="round" />
</g>
<g transform="matrix(0.79 0 0 0.79 861.78 45.41)"  >
<path style="stroke: none; stroke-width: 1; stroke-dasharray: none; stroke-linecap: butt; stroke-dashoffset: 0; stroke-linejoin: miter; stroke-miterlimit: 4; fill: rgb(206,206,206); fill-rule: nonzero; opacity: 1;"  transform=" translate(-1090.36, -53.54)" d="m 1090.359 45.316 l 7.203 4.11 v 8.222 l -7.203 4.11 l -7.203 -4.11 v -8.221 l 7.203 -4.11 m 0 -1.007 l -8.004 4.613 v 9.228 l 8.004 4.614 l 8.003 -4.614 v -9.228 l -8.003 -4.613 Z" stroke-linecap="round" />
</g>
<g transform="matrix(0.79 0 0 0.79 873.79 45.41)"  >
<path style="stroke: none; stroke-width: 1; stroke-dasharray: none; stroke-linecap: butt; stroke-dashoffset: 0; stroke-linejoin: miter; stroke-miterlimit: 4; fill: rgb(206,206,206); fill-rule: nonzero; opacity: 1;"  transform=" translate(-1105.57, -53.54)" d="m 1105.565 45.316 l 7.204 4.11 v 8.222 l -7.204 4.11 l -7.203 -4.11 v -8.221 l 7.203 -4.11 m 0 -1.007 l -8.003 4.613 v 9.228 l 8.003 4.614 l 8.004 -4.614 v -9.228 l -8.004 -4.613 Z" stroke-linecap="round" />
</g>
<g transform="matrix(0.79 0 0 0.79 885.8 45.41)"  >
<path style="stroke: none; stroke-width: 1; stroke-dasharray: none; stroke-linecap: butt; stroke-dashoffset: 0; stroke-linejoin: miter; stroke-miterlimit: 4; fill: rgb(206,206,206); fill-rule: nonzero; opacity: 1;"  transform=" translate(-1120.77, -53.54)" d="m 1120.772 45.316 l 7.203 4.11 v 8.222 l -7.203 4.11 l -7.203 -4.11 v -8.221 l 7.203 -4.11 m 0 -1.007 l -8.003 4.613 v 9.228 l 8.003 4.614 l 8.003 -4.614 v -9.228 l -8.003 -4.613 Z" stroke-linecap="round" />
</g>
<g transform="matrix(0.79 0 0 0.79 897.82 45.41)"  >
<path style="stroke: none; stroke-width: 1; stroke-dasharray: none; stroke-linecap: butt; stroke-dashoffset: 0; stroke-linejoin: miter; stroke-miterlimit: 4; fill: rgb(206,206,206); fill-rule: nonzero; opacity: 1;"  transform=" translate(-1135.98, -53.54)" d="m 1135.979 45.316 l 7.203 4.11 v 8.222 l -7.203 4.11 l -7.204 -4.11 v -8.221 l 7.204 -4.11 m 0 -1.007 l -8.004 4.613 v 9.228 l 8.004 4.614 l 8.003 -4.614 v -9.228 l -8.003 -4.613 Z" stroke-linecap="round" />
</g>
<g transform="matrix(0.79 0 0 0.79 909.83 45.41)"  >
<path style="stroke: none; stroke-width: 1; stroke-dasharray: none; stroke-linecap: butt; stroke-dashoffset: 0; stroke-linejoin: miter; stroke-miterlimit: 4; fill: rgb(206,206,206); fill-rule: nonzero; opacity: 1;"  transform=" translate(-1151.18, -53.54)" d="m 1151.185 45.316 l 7.203 4.11 v 8.222 l -7.203 4.11 l -7.203 -4.11 v -8.221 l 7.203 -4.11 m 0 -1.007 l -8.003 4.613 v 9.228 l 8.003 4.614 l 8.003 -4.614 v -9.228 l -8.003 -4.613 Z" stroke-linecap="round" />
</g>
<g transform="matrix(0.79 0 0 0.79 921.84 45.41)"  >
<path style="stroke: none; stroke-width: 1; stroke-dasharray: none; stroke-linecap: butt; stroke-dashoffset: 0; stroke-linejoin: miter; stroke-miterlimit: 4; fill: rgb(206,206,206); fill-rule: nonzero; opacity: 1;"  transform=" translate(-1166.39, -53.54)" d="m 1166.392 45.316 l 7.203 4.11 v 8.222 l -7.203 4.11 l -7.204 -4.11 v -8.221 l 7.204 -4.11 m 0 -1.007 l -8.004 4.613 v 9.228 l 8.004 4.614 l 8.003 -4.614 v -9.228 l -8.003 -4.613 Z" stroke-linecap="round" />
</g>
<g transform="matrix(0.79 0 0 0.79 933.86 45.41)"  >
<path style="stroke: none; stroke-width: 1; stroke-dasharray: none; stroke-linecap: butt; stroke-dashoffset: 0; stroke-linejoin: miter; stroke-miterlimit: 4; fill: rgb(206,206,206); fill-rule: nonzero; opacity: 1;"  transform=" translate(-1181.6, -53.54)" d="m 1181.598 45.316 l 7.203 4.11 v 8.222 l -7.203 4.11 l -7.203 -4.11 v -8.221 l 7.203 -4.11 m 0 -1.007 l -8.003 4.613 v 9.228 l 8.003 4.614 l 8.004 -4.614 v -9.228 l -8.004 -4.613 Z" stroke-linecap="round" />
</g>
<g transform="matrix(0.79 0 0 0.79 945.87 45.41)"  >
<path style="stroke: none; stroke-width: 1; stroke-dasharray: none; stroke-linecap: butt; stroke-dashoffset: 0; stroke-linejoin: miter; stroke-miterlimit: 4; fill: rgb(206,206,206); fill-rule: nonzero; opacity: 1;"  transform=" translate(-1196.8, -53.54)" d="m 1196.805 45.316 l 7.203 4.11 v 8.222 l -7.203 4.11 l -7.203 -4.11 v -8.221 l 7.203 -4.11 m 0 -1.007 l -8.004 4.613 v 9.228 l 8.004 4.614 l 8.003 -4.614 v -9.228 l -8.003 -4.613 Z" stroke-linecap="round" />
</g>
<g transform="matrix(0.79 0 0 0.79 957.88 45.41)"  >
<path style="stroke: none; stroke-width: 1; stroke-dasharray: none; stroke-linecap: butt; stroke-dashoffset: 0; stroke-linejoin: miter; stroke-miterlimit: 4; fill: rgb(206,206,206); fill-rule: nonzero; opacity: 1;"  transform=" translate(-1212.01, -53.54)" d="m 1212.011 45.316 l 7.203 4.11 v 8.222 l -7.203 4.11 l -7.203 -4.11 v -8.221 l 7.203 -4.11 m 0 -1.007 l -8.003 4.613 v 9.228 l 8.003 4.614 l 8.004 -4.614 v -9.228 l -8.004 -4.613 Z" stroke-linecap="round" />
</g>
<g transform="matrix(0.79 0 0 0.79 969.89 45.41)"  >
<path style="stroke: none; stroke-width: 1; stroke-dasharray: none; stroke-linecap: butt; stroke-dashoffset: 0; stroke-linejoin: miter; stroke-miterlimit: 4; fill: rgb(206,206,206); fill-rule: nonzero; opacity: 1;"  transform=" translate(-1227.22, -53.54)" d="m 1227.218 45.316 l 7.203 4.11 v 8.222 l -7.203 4.11 l -7.203 -4.11 v -8.221 l 7.203 -4.11 m 0 -1.007 l -8.004 4.613 v 9.228 l 8.004 4.614 l 8.003 -4.614 v -9.228 l -8.003 -4.613 Z" stroke-linecap="round" />
</g>
<g transform="matrix(0.79 0 0 0.79 735.64 56.16)"  >
<path style="stroke: none; stroke-width: 1; stroke-dasharray: none; stroke-linecap: butt; stroke-dashoffset: 0; stroke-linejoin: miter; stroke-miterlimit: 4; fill: rgb(206,206,206); fill-rule: nonzero; opacity: 1;"  transform=" translate(-930.69, -67.13)" d="m 930.69 58.906 l 7.204 4.11 v 8.221 l -7.204 4.111 l -7.203 -4.11 v -8.222 l 7.203 -4.11 m 0 -1.007 l -8.003 4.614 v 9.228 l 8.003 4.614 l 8.004 -4.614 v -9.228 L 930.69 57.9 Z" stroke-linecap="round" />
</g>
<g transform="matrix(0.79 0 0 0.79 747.65 56.16)"  >
<path style="stroke: none; stroke-width: 1; stroke-dasharray: none; stroke-linecap: butt; stroke-dashoffset: 0; stroke-linejoin: miter; stroke-miterlimit: 4; fill: rgb(206,206,206); fill-rule: nonzero; opacity: 1;"  transform=" translate(-945.9, -67.13)" d="m 945.897 58.906 l 7.203 4.11 v 8.221 l -7.203 4.111 l -7.203 -4.11 v -8.222 l 7.203 -4.11 m 0 -1.007 l -8.003 4.614 v 9.228 l 8.003 4.614 l 8.003 -4.614 v -9.228 l -8.003 -4.614 Z" stroke-linecap="round" />
</g>
<g transform="matrix(0.79 0 0 0.79 759.66 56.16)"  >
<path style="stroke: none; stroke-width: 1; stroke-dasharray: none; stroke-linecap: butt; stroke-dashoffset: 0; stroke-linejoin: miter; stroke-miterlimit: 4; fill: rgb(206,206,206); fill-rule: nonzero; opacity: 1;"  transform=" translate(-961.1, -67.13)" d="m 961.103 58.906 l 7.204 4.11 v 8.221 l -7.204 4.111 l -7.203 -4.11 v -8.222 l 7.203 -4.11 m 0 -1.007 l -8.003 4.614 v 9.228 l 8.003 4.614 l 8.004 -4.614 v -9.228 l -8.004 -4.614 Z" stroke-linecap="round" />
</g>
<g transform="matrix(0.79 0 0 0.79 771.68 56.16)"  >
<path style="stroke: none; stroke-width: 1; stroke-dasharray: none; stroke-linecap: butt; stroke-dashoffset: 0; stroke-linejoin: miter; stroke-miterlimit: 4; fill: rgb(206,206,206); fill-rule: nonzero; opacity: 1;"  transform=" translate(-976.31, -67.13)" d="m 976.31 58.906 l 7.203 4.11 v 8.221 l -7.203 4.111 l -7.203 -4.11 v -8.222 l 7.203 -4.11 m 0 -1.007 l -8.003 4.614 v 9.228 l 8.003 4.614 l 8.003 -4.614 v -9.228 L 976.31 57.9 Z" stroke-linecap="round" />
</g>
<g transform="matrix(0.79 0 0 0.79 783.69 56.16)"  >
<path style="stroke: none; stroke-width: 1; stroke-dasharray: none; stroke-linecap: butt; stroke-dashoffset: 0; stroke-linejoin: miter; stroke-miterlimit: 4; fill: rgb(206,206,206); fill-rule: nonzero; opacity: 1;"  transform=" translate(-991.52, -67.13)" d="m 991.517 58.906 l 7.203 4.11 v 8.221 l -7.203 4.111 l -7.204 -4.11 v -8.222 l 7.204 -4.11 m 0 -1.007 l -8.004 4.614 v 9.228 l 8.004 4.614 l 8.003 -4.614 v -9.228 l -8.003 -4.614 Z" stroke-linecap="round" />
</g>
<g transform="matrix(0.79 0 0 0.79 795.7 56.16)"  >
<path style="stroke: none; stroke-width: 1; stroke-dasharray: none; stroke-linecap: butt; stroke-dashoffset: 0; stroke-linejoin: miter; stroke-miterlimit: 4; fill: rgb(206,206,206); fill-rule: nonzero; opacity: 1;"  transform=" translate(-1006.72, -67.13)" d="m 1006.723 58.906 l 7.203 4.11 v 8.221 l -7.203 4.111 l -7.203 -4.11 v -8.222 l 7.203 -4.11 m 0 -1.007 l -8.003 4.614 v 9.228 l 8.003 4.614 l 8.004 -4.614 v -9.228 l -8.004 -4.614 Z" stroke-linecap="round" />
</g>
<g transform="matrix(0.79 0 0 0.79 807.72 56.16)"  >
<path style="stroke: none; stroke-width: 1; stroke-dasharray: none; stroke-linecap: butt; stroke-dashoffset: 0; stroke-linejoin: miter; stroke-miterlimit: 4; fill: rgb(206,206,206); fill-rule: nonzero; opacity: 1;"  transform=" translate(-1021.93, -67.13)" d="m 1021.93 58.906 l 7.203 4.11 v 8.221 l -7.203 4.111 l -7.203 -4.11 v -8.222 l 7.203 -4.11 m 0 -1.007 l -8.004 4.614 v 9.228 l 8.004 4.614 l 8.003 -4.614 v -9.228 l -8.003 -4.614 Z" stroke-linecap="round" />
</g>
<g transform="matrix(0.79 0 0 0.79 819.73 56.16)"  >
<path style="stroke: none; stroke-width: 1; stroke-dasharray: none; stroke-linecap: butt; stroke-dashoffset: 0; stroke-linejoin: miter; stroke-miterlimit: 4; fill: rgb(206,206,206); fill-rule: nonzero; opacity: 1;"  transform=" translate(-1037.14, -67.13)" d="m 1037.136 58.906 l 7.203 4.11 v 8.221 l -7.203 4.111 l -7.203 -4.11 v -8.222 l 7.203 -4.11 m 0 -1.007 l -8.003 4.614 v 9.228 l 8.003 4.614 l 8.004 -4.614 v -9.228 l -8.004 -4.614 Z" stroke-linecap="round" />
</g>
<g transform="matrix(0.79 0 0 0.79 831.74 56.16)"  >
<path style="stroke: none; stroke-width: 1; stroke-dasharray: none; stroke-linecap: butt; stroke-dashoffset: 0; stroke-linejoin: miter; stroke-miterlimit: 4; fill: rgb(206,206,206); fill-rule: nonzero; opacity: 1;"  transform=" translate(-1052.34, -67.13)" d="m 1052.343 58.906 l 7.203 4.11 v 8.221 l -7.203 4.111 l -7.203 -4.11 v -8.222 l 7.203 -4.11 m 0 -1.007 l -8.004 4.614 v 9.228 l 8.004 4.614 l 8.003 -4.614 v -9.228 l -8.003 -4.614 Z" stroke-linecap="round" />
</g>
<g transform="matrix(0.79 0 0 0.79 843.76 56.16)"  >
<path style="stroke: none; stroke-width: 1; stroke-dasharray: none; stroke-linecap: butt; stroke-dashoffset: 0; stroke-linejoin: miter; stroke-miterlimit: 4; fill: rgb(206,206,206); fill-rule: nonzero; opacity: 1;"  transform=" translate(-1067.55, -67.13)" d="m 1067.55 58.906 l 7.202 4.11 v 8.221 l -7.203 4.111 l -7.203 -4.11 v -8.222 l 7.203 -4.11 m 0 -1.007 l -8.003 4.614 v 9.228 l 8.003 4.614 l 8.004 -4.614 v -9.228 l -8.004 -4.614 Z" stroke-linecap="round" />
</g>
<g transform="matrix(0.79 0 0 0.79 855.77 56.16)"  >
<path style="stroke: none; stroke-width: 1; stroke-dasharray: none; stroke-linecap: butt; stroke-dashoffset: 0; stroke-linejoin: miter; stroke-miterlimit: 4; fill: rgb(206,206,206); fill-rule: nonzero; opacity: 1;"  transform=" translate(-1082.76, -67.13)" d="m 1082.756 58.906 l 7.203 4.11 v 8.221 l -7.203 4.111 l -7.203 -4.11 v -8.222 l 7.203 -4.11 m 0 -1.007 l -8.004 4.614 v 9.228 l 8.004 4.614 l 8.003 -4.614 v -9.228 l -8.003 -4.614 Z" stroke-linecap="round" />
</g>
<g transform="matrix(0.79 0 0 0.79 867.78 56.16)"  >
<path style="stroke: none; stroke-width: 1; stroke-dasharray: none; stroke-linecap: butt; stroke-dashoffset: 0; stroke-linejoin: miter; stroke-miterlimit: 4; fill: rgb(206,206,206); fill-rule: nonzero; opacity: 1;"  transform=" translate(-1097.96, -67.13)" d="m 1097.962 58.906 l 7.203 4.11 v 8.221 l -7.203 4.111 l -7.203 -4.11 v -8.222 l 7.203 -4.11 m 0 -1.007 l -8.003 4.614 v 9.228 l 8.003 4.614 l 8.004 -4.614 v -9.228 l -8.004 -4.614 Z" stroke-linecap="round" />
</g>
<g transform="matrix(0.79 0 0 0.79 879.8 56.16)"  >
<path style="stroke: none; stroke-width: 1; stroke-dasharray: none; stroke-linecap: butt; stroke-dashoffset: 0; stroke-linejoin: miter; stroke-miterlimit: 4; fill: rgb(206,206,206); fill-rule: nonzero; opacity: 1;"  transform=" translate(-1113.17, -67.13)" d="m 1113.169 58.906 l 7.203 4.11 v 8.221 l -7.203 4.111 l -7.203 -4.11 v -8.222 l 7.203 -4.11 m 0 -1.007 l -8.004 4.614 v 9.228 l 8.004 4.614 l 8.003 -4.614 v -9.228 l -8.003 -4.614 Z" stroke-linecap="round" />
</g>
<g transform="matrix(0.79 0 0 0.79 891.81 56.16)"  >
<path style="stroke: none; stroke-width: 1; stroke-dasharray: none; stroke-linecap: butt; stroke-dashoffset: 0; stroke-linejoin: miter; stroke-miterlimit: 4; fill: rgb(206,206,206); fill-rule: nonzero; opacity: 1;"  transform=" translate(-1128.38, -67.13)" d="m 1128.375 58.906 l 7.203 4.11 v 8.221 l -7.203 4.111 l -7.203 -4.11 v -8.222 l 7.203 -4.11 m 0 -1.007 l -8.003 4.614 v 9.228 l 8.003 4.614 l 8.004 -4.614 v -9.228 l -8.004 -4.614 Z" stroke-linecap="round" />
</g>
<g transform="matrix(0.79 0 0 0.79 903.82 56.16)"  >
<path style="stroke: none; stroke-width: 1; stroke-dasharray: none; stroke-linecap: butt; stroke-dashoffset: 0; stroke-linejoin: miter; stroke-miterlimit: 4; fill: rgb(206,206,206); fill-rule: nonzero; opacity: 1;"  transform=" translate(-1143.58, -67.13)" d="m 1143.582 58.906 l 7.203 4.11 v 8.221 l -7.203 4.111 l -7.203 -4.11 v -8.222 l 7.203 -4.11 m 0 -1.007 l -8.004 4.614 v 9.228 l 8.004 4.614 l 8.003 -4.614 v -9.228 l -8.003 -4.614 Z" stroke-linecap="round" />
</g>
<g transform="matrix(0.79 0 0 0.79 915.84 56.16)"  >
<path style="stroke: none; stroke-width: 1; stroke-dasharray: none; stroke-linecap: butt; stroke-dashoffset: 0; stroke-linejoin: miter; stroke-miterlimit: 4; fill: rgb(206,206,206); fill-rule: nonzero; opacity: 1;"  transform=" translate(-1158.79, -67.13)" d="m 1158.788 58.906 l 7.203 4.11 v 8.221 l -7.203 4.111 l -7.203 -4.11 v -8.222 l 7.203 -4.11 m 0 -1.007 l -8.003 4.614 v 9.228 l 8.003 4.614 l 8.004 -4.614 v -9.228 l -8.004 -4.614 Z" stroke-linecap="round" />
</g>
<g transform="matrix(0.79 0 0 0.79 927.85 56.16)"  >
<path style="stroke: none; stroke-width: 1; stroke-dasharray: none; stroke-linecap: butt; stroke-dashoffset: 0; stroke-linejoin: miter; stroke-miterlimit: 4; fill: rgb(206,206,206); fill-rule: nonzero; opacity: 1;"  transform=" translate(-1173.99, -67.13)" d="m 1173.995 58.906 l 7.203 4.11 v 8.221 l -7.203 4.111 l -7.203 -4.11 v -8.222 l 7.203 -4.11 m 0 -1.007 l -8.004 4.614 v 9.228 l 8.004 4.614 l 8.003 -4.614 v -9.228 l -8.003 -4.614 Z" stroke-linecap="round" />
</g>
<g transform="matrix(0.79 0 0 0.79 939.86 56.16)"  >
<path style="stroke: none; stroke-width: 1; stroke-dasharray: none; stroke-linecap: butt; stroke-dashoffset: 0; stroke-linejoin: miter; stroke-miterlimit: 4; fill: rgb(206,206,206); fill-rule: nonzero; opacity: 1;"  transform=" translate(-1189.2, -67.13)" d="m 1189.201 58.906 l 7.204 4.11 v 8.221 l -7.204 4.111 l -7.203 -4.11 v -8.222 l 7.203 -4.11 m 0 -1.007 l -8.003 4.614 v 9.228 l 8.003 4.614 l 8.004 -4.614 v -9.228 L 1189.2 57.9 Z" stroke-linecap="round" />
</g>
<g transform="matrix(0.79 0 0 0.79 951.87 56.16)"  >
<path style="stroke: none; stroke-width: 1; stroke-dasharray: none; stroke-linecap: butt; stroke-dashoffset: 0; stroke-linejoin: miter; stroke-miterlimit: 4; fill: rgb(206,206,206); fill-rule: nonzero; opacity: 1;"  transform=" translate(-1204.41, -67.13)" d="m 1204.408 58.906 l 7.203 4.11 v 8.221 l -7.203 4.111 l -7.203 -4.11 v -8.222 l 7.203 -4.11 m 0 -1.007 l -8.003 4.614 v 9.228 l 8.003 4.614 l 8.003 -4.614 v -9.228 l -8.003 -4.614 Z" stroke-linecap="round" />
</g>
<g transform="matrix(0.79 0 0 0.79 963.89 56.16)"  >
<path style="stroke: none; stroke-width: 1; stroke-dasharray: none; stroke-linecap: butt; stroke-dashoffset: 0; stroke-linejoin: miter; stroke-miterlimit: 4; fill: rgb(206,206,206); fill-rule: nonzero; opacity: 1;"  transform=" translate(-1219.61, -67.13)" d="m 1219.615 58.906 l 7.203 4.11 v 8.221 l -7.203 4.111 l -7.204 -4.11 v -8.222 l 7.204 -4.11 m 0 -1.007 l -8.004 4.614 v 9.228 l 8.004 4.614 l 8.003 -4.614 v -9.228 l -8.003 -4.614 Z" stroke-linecap="round" />
</g>
<g transform="matrix(0.79 0 0 0.79 741.64 66.82)"  >
<path style="stroke: none; stroke-width: 1; stroke-dasharray: none; stroke-linecap: butt; stroke-dashoffset: 0; stroke-linejoin: miter; stroke-miterlimit: 4; fill: rgb(206,206,206); fill-rule: nonzero; opacity: 1;"  transform=" translate(-938.29, -80.63)" d="m 938.294 72.328 l 7.203 4.11 v 8.221 l -7.203 4.111 l -7.203 -4.11 v -8.222 l 7.203 -4.11 m 0 -0.923 l -8.004 4.614 v 9.228 l 8.004 4.614 l 8.003 -4.614 v -9.228 l -8.003 -4.614 Z" stroke-linecap="round" />
</g>
<g transform="matrix(0.79 0 0 0.79 753.66 66.82)"  >
<path style="stroke: none; stroke-width: 1; stroke-dasharray: none; stroke-linecap: butt; stroke-dashoffset: 0; stroke-linejoin: miter; stroke-miterlimit: 4; fill: rgb(206,206,206); fill-rule: nonzero; opacity: 1;"  transform=" translate(-953.5, -80.63)" d="m 953.5 72.328 l 7.203 4.11 v 8.221 L 953.5 88.77 l -7.203 -4.11 v -8.222 l 7.203 -4.11 m 0 -0.923 l -8.003 4.614 v 9.228 l 8.003 4.614 l 8.004 -4.614 v -9.228 l -8.004 -4.614 Z" stroke-linecap="round" />
</g>
<g transform="matrix(0.79 0 0 0.79 765.67 66.82)"  >
<path style="stroke: none; stroke-width: 1; stroke-dasharray: none; stroke-linecap: butt; stroke-dashoffset: 0; stroke-linejoin: miter; stroke-miterlimit: 4; fill: rgb(206,206,206); fill-rule: nonzero; opacity: 1;"  transform=" translate(-968.71, -80.63)" d="m 968.707 72.328 l 7.203 4.11 v 8.221 l -7.203 4.111 l -7.203 -4.11 v -8.222 l 7.203 -4.11 m 0 -0.923 l -8.004 4.614 v 9.228 l 8.004 4.614 l 8.003 -4.614 v -9.228 l -8.003 -4.614 Z" stroke-linecap="round" />
</g>
<g transform="matrix(0.79 0 0 0.79 777.68 66.82)"  >
<path style="stroke: none; stroke-width: 1; stroke-dasharray: none; stroke-linecap: butt; stroke-dashoffset: 0; stroke-linejoin: miter; stroke-miterlimit: 4; fill: rgb(206,206,206); fill-rule: nonzero; opacity: 1;"  transform=" translate(-983.91, -80.63)" d="m 983.913 72.328 l 7.203 4.11 v 8.221 l -7.203 4.111 l -7.203 -4.11 v -8.222 l 7.203 -4.11 m 0 -0.923 l -8.003 4.614 v 9.228 l 8.003 4.614 l 8.004 -4.614 v -9.228 l -8.004 -4.614 Z" stroke-linecap="round" />
</g>
<g transform="matrix(0.79 0 0 0.79 789.7 66.82)"  >
<path style="stroke: none; stroke-width: 1; stroke-dasharray: none; stroke-linecap: butt; stroke-dashoffset: 0; stroke-linejoin: miter; stroke-miterlimit: 4; fill: rgb(206,206,206); fill-rule: nonzero; opacity: 1;"  transform=" translate(-999.12, -80.63)" d="m 999.12 72.328 l 7.203 4.11 v 8.221 l -7.203 4.111 l -7.203 -4.11 v -8.222 l 7.203 -4.11 m 0 -0.923 l -8.004 4.614 v 9.228 l 8.004 4.614 l 8.003 -4.614 v -9.228 l -8.003 -4.614 Z" stroke-linecap="round" />
</g>
<g transform="matrix(0.79 0 0 0.79 801.71 66.82)"  >
<path style="stroke: none; stroke-width: 1; stroke-dasharray: none; stroke-linecap: butt; stroke-dashoffset: 0; stroke-linejoin: miter; stroke-miterlimit: 4; fill: rgb(206,206,206); fill-rule: nonzero; opacity: 1;"  transform=" translate(-1014.33, -80.63)" d="m 1014.326 72.328 l 7.203 4.11 v 8.221 l -7.203 4.111 l -7.203 -4.11 v -8.222 l 7.203 -4.11 m 0 -0.923 l -8.003 4.614 v 9.228 l 8.003 4.614 l 8.004 -4.614 v -9.228 l -8.004 -4.614 Z" stroke-linecap="round" />
</g>
<g transform="matrix(0.79 0 0 0.79 813.72 66.82)"  >
<path style="stroke: none; stroke-width: 1; stroke-dasharray: none; stroke-linecap: butt; stroke-dashoffset: 0; stroke-linejoin: miter; stroke-miterlimit: 4; fill: rgb(206,206,206); fill-rule: nonzero; opacity: 1;"  transform=" translate(-1029.53, -80.63)" d="m 1029.533 72.328 l 7.203 4.11 v 8.221 l -7.203 4.111 l -7.203 -4.11 v -8.222 l 7.203 -4.11 m 0 -0.923 l -8.004 4.614 v 9.228 l 8.004 4.614 l 8.003 -4.614 v -9.228 l -8.003 -4.614 Z" stroke-linecap="round" />
</g>
<g transform="matrix(0.79 0 0 0.79 825.74 66.82)"  >
<path style="stroke: none; stroke-width: 1; stroke-dasharray: none; stroke-linecap: butt; stroke-dashoffset: 0; stroke-linejoin: miter; stroke-miterlimit: 4; fill: rgb(206,206,206); fill-rule: nonzero; opacity: 1;"  transform=" translate(-1044.74, -80.63)" d="m 1044.74 72.328 l 7.202 4.11 v 8.221 l -7.203 4.111 l -7.203 -4.11 v -8.222 l 7.203 -4.11 m 0 -0.923 l -8.003 4.614 v 9.228 l 8.003 4.614 l 8.004 -4.614 v -9.228 l -8.004 -4.614 Z" stroke-linecap="round" />
</g>
<g transform="matrix(0.79 0 0 0.79 837.75 66.82)"  >
<path style="stroke: none; stroke-width: 1; stroke-dasharray: none; stroke-linecap: butt; stroke-dashoffset: 0; stroke-linejoin: miter; stroke-miterlimit: 4; fill: rgb(206,206,206); fill-rule: nonzero; opacity: 1;"  transform=" translate(-1059.95, -80.63)" d="m 1059.946 72.328 l 7.203 4.11 v 8.221 l -7.203 4.111 l -7.203 -4.11 v -8.222 l 7.203 -4.11 m 0 -0.923 l -8.004 4.614 v 9.228 l 8.004 4.614 l 8.003 -4.614 v -9.228 l -8.003 -4.614 Z" stroke-linecap="round" />
</g>
<g transform="matrix(0.79 0 0 0.79 849.76 66.82)"  >
<path style="stroke: none; stroke-width: 1; stroke-dasharray: none; stroke-linecap: butt; stroke-dashoffset: 0; stroke-linejoin: miter; stroke-miterlimit: 4; fill: rgb(206,206,206); fill-rule: nonzero; opacity: 1;"  transform=" translate(-1075.15, -80.63)" d="m 1075.152 72.328 l 7.203 4.11 v 8.221 l -7.203 4.111 l -7.203 -4.11 v -8.222 l 7.203 -4.11 m 0 -0.923 l -8.003 4.614 v 9.228 l 8.003 4.614 l 8.004 -4.614 v -9.228 l -8.004 -4.614 Z" stroke-linecap="round" />
</g>
<g transform="matrix(0.79 0 0 0.79 861.78 66.82)"  >
<path style="stroke: none; stroke-width: 1; stroke-dasharray: none; stroke-linecap: butt; stroke-dashoffset: 0; stroke-linejoin: miter; stroke-miterlimit: 4; fill: rgb(206,206,206); fill-rule: nonzero; opacity: 1;"  transform=" translate(-1090.36, -80.63)" d="m 1090.359 72.328 l 7.203 4.11 v 8.221 l -7.203 4.111 l -7.203 -4.11 v -8.222 l 7.203 -4.11 m 0 -0.923 l -8.004 4.614 v 9.228 l 8.004 4.614 l 8.003 -4.614 v -9.228 l -8.003 -4.614 Z" stroke-linecap="round" />
</g>
<g transform="matrix(0.79 0 0 0.79 873.79 66.82)"  >
<path style="stroke: none; stroke-width: 1; stroke-dasharray: none; stroke-linecap: butt; stroke-dashoffset: 0; stroke-linejoin: miter; stroke-miterlimit: 4; fill: rgb(206,206,206); fill-rule: nonzero; opacity: 1;"  transform=" translate(-1105.57, -80.63)" d="m 1105.565 72.328 l 7.204 4.11 v 8.221 l -7.204 4.111 l -7.203 -4.11 v -8.222 l 7.203 -4.11 m 0 -0.923 l -8.003 4.614 v 9.228 l 8.003 4.614 l 8.004 -4.614 v -9.228 l -8.004 -4.614 Z" stroke-linecap="round" />
</g>
<g transform="matrix(0.79 0 0 0.79 885.8 66.82)"  >
<path style="stroke: none; stroke-width: 1; stroke-dasharray: none; stroke-linecap: butt; stroke-dashoffset: 0; stroke-linejoin: miter; stroke-miterlimit: 4; fill: rgb(206,206,206); fill-rule: nonzero; opacity: 1;"  transform=" translate(-1120.77, -80.63)" d="m 1120.772 72.328 l 7.203 4.11 v 8.221 l -7.203 4.111 l -7.203 -4.11 v -8.222 l 7.203 -4.11 m 0 -0.923 l -8.003 4.614 v 9.228 l 8.003 4.614 l 8.003 -4.614 v -9.228 l -8.003 -4.614 Z" stroke-linecap="round" />
</g>
<g transform="matrix(0.79 0 0 0.79 897.82 66.82)"  >
<path style="stroke: none; stroke-width: 1; stroke-dasharray: none; stroke-linecap: butt; stroke-dashoffset: 0; stroke-linejoin: miter; stroke-miterlimit: 4; fill: rgb(206,206,206); fill-rule: nonzero; opacity: 1;"  transform=" translate(-1135.98, -80.63)" d="m 1135.979 72.328 l 7.203 4.11 v 8.221 l -7.203 4.111 l -7.204 -4.11 v -8.222 l 7.204 -4.11 m 0 -0.923 l -8.004 4.614 v 9.228 l 8.004 4.614 l 8.003 -4.614 v -9.228 l -8.003 -4.614 Z" stroke-linecap="round" />
</g>
<g transform="matrix(0.79 0 0 0.79 909.83 66.82)"  >
<path style="stroke: none; stroke-width: 1; stroke-dasharray: none; stroke-linecap: butt; stroke-dashoffset: 0; stroke-linejoin: miter; stroke-miterlimit: 4; fill: rgb(206,206,206); fill-rule: nonzero; opacity: 1;"  transform=" translate(-1151.18, -80.63)" d="m 1151.185 72.328 l 7.203 4.11 v 8.221 l -7.203 4.111 l -7.203 -4.11 v -8.222 l 7.203 -4.11 m 0 -0.923 l -8.003 4.614 v 9.228 l 8.003 4.614 l 8.003 -4.614 v -9.228 l -8.003 -4.614 Z" stroke-linecap="round" />
</g>
<g transform="matrix(0.79 0 0 0.79 921.84 66.82)"  >
<path style="stroke: none; stroke-width: 1; stroke-dasharray: none; stroke-linecap: butt; stroke-dashoffset: 0; stroke-linejoin: miter; stroke-miterlimit: 4; fill: rgb(206,206,206); fill-rule: nonzero; opacity: 1;"  transform=" translate(-1166.39, -80.63)" d="m 1166.392 72.328 l 7.203 4.11 v 8.221 l -7.203 4.111 l -7.204 -4.11 v -8.222 l 7.204 -4.11 m 0 -0.923 l -8.004 4.614 v 9.228 l 8.004 4.614 l 8.003 -4.614 v -9.228 l -8.003 -4.614 Z" stroke-linecap="round" />
</g>
<g transform="matrix(0.79 0 0 0.79 933.86 66.82)"  >
<path style="stroke: none; stroke-width: 1; stroke-dasharray: none; stroke-linecap: butt; stroke-dashoffset: 0; stroke-linejoin: miter; stroke-miterlimit: 4; fill: rgb(206,206,206); fill-rule: nonzero; opacity: 1;"  transform=" translate(-1181.6, -80.63)" d="m 1181.598 72.328 l 7.203 4.11 v 8.221 l -7.203 4.111 l -7.203 -4.11 v -8.222 l 7.203 -4.11 m 0 -0.923 l -8.003 4.614 v 9.228 l 8.003 4.614 l 8.004 -4.614 v -9.228 l -8.004 -4.614 Z" stroke-linecap="round" />
</g>
<g transform="matrix(0.79 0 0 0.79 945.87 66.82)"  >
<path style="stroke: none; stroke-width: 1; stroke-dasharray: none; stroke-linecap: butt; stroke-dashoffset: 0; stroke-linejoin: miter; stroke-miterlimit: 4; fill: rgb(206,206,206); fill-rule: nonzero; opacity: 1;"  transform=" translate(-1196.8, -80.63)" d="m 1196.805 72.328 l 7.203 4.11 v 8.221 l -7.203 4.111 l -7.203 -4.11 v -8.222 l 7.203 -4.11 m 0 -0.923 l -8.004 4.614 v 9.228 l 8.004 4.614 l 8.003 -4.614 v -9.228 l -8.003 -4.614 Z" stroke-linecap="round" />
</g>
<g transform="matrix(0.79 0 0 0.79 957.88 66.82)"  >
<path style="stroke: none; stroke-width: 1; stroke-dasharray: none; stroke-linecap: butt; stroke-dashoffset: 0; stroke-linejoin: miter; stroke-miterlimit: 4; fill: rgb(206,206,206); fill-rule: nonzero; opacity: 1;"  transform=" translate(-1212.01, -80.63)" d="m 1212.011 72.328 l 7.203 4.11 v 8.221 l -7.203 4.111 l -7.203 -4.11 v -8.222 l 7.203 -4.11 m 0 -0.923 l -8.003 4.614 v 9.228 l 8.003 4.614 l 8.004 -4.614 v -9.228 l -8.004 -4.614 Z" stroke-linecap="round" />
</g>
<g transform="matrix(0.79 0 0 0.79 969.89 66.82)"  >
<path style="stroke: none; stroke-width: 1; stroke-dasharray: none; stroke-linecap: butt; stroke-dashoffset: 0; stroke-linejoin: miter; stroke-miterlimit: 4; fill: rgb(206,206,206); fill-rule: nonzero; opacity: 1;"  transform=" translate(-1227.22, -80.63)" d="m 1227.218 72.328 l 7.203 4.11 v 8.221 l -7.203 4.111 l -7.203 -4.11 v -8.222 l 7.203 -4.11 m 0 -0.923 l -8.004 4.614 v 9.228 l 8.004 4.614 l 8.003 -4.614 v -9.228 l -8.003 -4.614 Z" stroke-linecap="round" />
</g>
<g transform="matrix(0.79 0 0 0.79 735.64 77.55)"  >
<path style="stroke: none; stroke-width: 1; stroke-dasharray: none; stroke-linecap: butt; stroke-dashoffset: 0; stroke-linejoin: miter; stroke-miterlimit: 4; fill: rgb(206,206,206); fill-rule: nonzero; opacity: 1;"  transform=" translate(-930.69, -94.22)" d="m 930.69 85.918 l 7.204 4.11 v 8.221 l -7.204 4.11 l -7.203 -4.11 v -8.137 l 7.203 -4.194 m 0 -0.923 l -8.003 4.614 v 9.227 l 8.003 4.614 l 8.004 -4.614 V 89.61 l -8.004 -4.614 Z" stroke-linecap="round" />
</g>
<g transform="matrix(0.79 0 0 0.79 747.65 77.55)"  >
<path style="stroke: none; stroke-width: 1; stroke-dasharray: none; stroke-linecap: butt; stroke-dashoffset: 0; stroke-linejoin: miter; stroke-miterlimit: 4; fill: rgb(206,206,206); fill-rule: nonzero; opacity: 1;"  transform=" translate(-945.9, -94.22)" d="m 945.897 85.918 l 7.203 4.11 v 8.221 l -7.203 4.11 l -7.203 -4.11 v -8.137 l 7.203 -4.194 m 0 -0.923 l -8.003 4.614 v 9.227 l 8.003 4.614 l 8.003 -4.614 V 89.61 l -8.003 -4.614 Z" stroke-linecap="round" />
</g>
<g transform="matrix(0.79 0 0 0.79 759.66 77.55)"  >
<path style="stroke: none; stroke-width: 1; stroke-dasharray: none; stroke-linecap: butt; stroke-dashoffset: 0; stroke-linejoin: miter; stroke-miterlimit: 4; fill: rgb(206,206,206); fill-rule: nonzero; opacity: 1;"  transform=" translate(-961.1, -94.22)" d="m 961.103 85.918 l 7.204 4.11 v 8.221 l -7.204 4.11 l -7.203 -4.11 v -8.137 l 7.203 -4.194 m 0 -0.923 l -8.003 4.614 v 9.227 l 8.003 4.614 l 8.004 -4.614 V 89.61 l -8.004 -4.614 Z" stroke-linecap="round" />
</g>
<g transform="matrix(0.79 0 0 0.79 771.68 77.55)"  >
<path style="stroke: none; stroke-width: 1; stroke-dasharray: none; stroke-linecap: butt; stroke-dashoffset: 0; stroke-linejoin: miter; stroke-miterlimit: 4; fill: rgb(206,206,206); fill-rule: nonzero; opacity: 1;"  transform=" translate(-976.31, -94.22)" d="m 976.31 85.918 l 7.203 4.11 v 8.221 l -7.203 4.11 l -7.203 -4.11 v -8.137 l 7.203 -4.194 m 0 -0.923 l -8.003 4.614 v 9.227 l 8.003 4.614 l 8.003 -4.614 V 89.61 l -8.003 -4.614 Z" stroke-linecap="round" />
</g>
<g transform="matrix(0.79 0 0 0.79 783.69 77.55)"  >
<path style="stroke: none; stroke-width: 1; stroke-dasharray: none; stroke-linecap: butt; stroke-dashoffset: 0; stroke-linejoin: miter; stroke-miterlimit: 4; fill: rgb(206,206,206); fill-rule: nonzero; opacity: 1;"  transform=" translate(-991.52, -94.22)" d="m 991.517 85.918 l 7.203 4.11 v 8.221 l -7.203 4.11 l -7.204 -4.11 v -8.137 l 7.204 -4.194 m 0 -0.923 l -8.004 4.614 v 9.227 l 8.004 4.614 l 8.003 -4.614 V 89.61 l -8.003 -4.614 Z" stroke-linecap="round" />
</g>
<g transform="matrix(0.79 0 0 0.79 795.7 77.55)"  >
<path style="stroke: none; stroke-width: 1; stroke-dasharray: none; stroke-linecap: butt; stroke-dashoffset: 0; stroke-linejoin: miter; stroke-miterlimit: 4; fill: rgb(206,206,206); fill-rule: nonzero; opacity: 1;"  transform=" translate(-1006.72, -94.22)" d="m 1006.723 85.918 l 7.203 4.11 v 8.221 l -7.203 4.11 l -7.203 -4.11 v -8.137 l 7.203 -4.194 m 0 -0.923 l -8.003 4.614 v 9.227 l 8.003 4.614 l 8.004 -4.614 V 89.61 l -8.004 -4.614 Z" stroke-linecap="round" />
</g>
<g transform="matrix(0.79 0 0 0.79 807.72 77.55)"  >
<path style="stroke: none; stroke-width: 1; stroke-dasharray: none; stroke-linecap: butt; stroke-dashoffset: 0; stroke-linejoin: miter; stroke-miterlimit: 4; fill: rgb(206,206,206); fill-rule: nonzero; opacity: 1;"  transform=" translate(-1021.93, -94.22)" d="m 1021.93 85.918 l 7.203 4.11 v 8.221 l -7.203 4.11 l -7.203 -4.11 v -8.137 l 7.203 -4.194 m 0 -0.923 l -8.004 4.614 v 9.227 l 8.004 4.614 l 8.003 -4.614 V 89.61 l -8.003 -4.614 Z" stroke-linecap="round" />
</g>
<g transform="matrix(0.79 0 0 0.79 819.73 77.55)"  >
<path style="stroke: none; stroke-width: 1; stroke-dasharray: none; stroke-linecap: butt; stroke-dashoffset: 0; stroke-linejoin: miter; stroke-miterlimit: 4; fill: rgb(206,206,206); fill-rule: nonzero; opacity: 1;"  transform=" translate(-1037.14, -94.22)" d="m 1037.136 85.918 l 7.203 4.11 v 8.221 l -7.203 4.11 l -7.203 -4.11 v -8.137 l 7.203 -4.194 m 0 -0.923 l -8.003 4.614 v 9.227 l 8.003 4.614 l 8.004 -4.614 V 89.61 l -8.004 -4.614 Z" stroke-linecap="round" />
</g>
<g transform="matrix(0.79 0 0 0.79 831.74 77.55)"  >
<path style="stroke: none; stroke-width: 1; stroke-dasharray: none; stroke-linecap: butt; stroke-dashoffset: 0; stroke-linejoin: miter; stroke-miterlimit: 4; fill: rgb(206,206,206); fill-rule: nonzero; opacity: 1;"  transform=" translate(-1052.34, -94.22)" d="m 1052.343 85.918 l 7.203 4.11 v 8.221 l -7.203 4.11 l -7.203 -4.11 v -8.137 l 7.203 -4.194 m 0 -0.923 l -8.004 4.614 v 9.227 l 8.004 4.614 l 8.003 -4.614 V 89.61 l -8.003 -4.614 Z" stroke-linecap="round" />
</g>
<g transform="matrix(0.79 0 0 0.79 843.76 77.55)"  >
<path style="stroke: none; stroke-width: 1; stroke-dasharray: none; stroke-linecap: butt; stroke-dashoffset: 0; stroke-linejoin: miter; stroke-miterlimit: 4; fill: rgb(206,206,206); fill-rule: nonzero; opacity: 1;"  transform=" translate(-1067.55, -94.22)" d="m 1067.55 85.918 l 7.202 4.11 v 8.221 l -7.203 4.11 l -7.203 -4.11 v -8.137 l 7.203 -4.194 m 0 -0.923 l -8.003 4.614 v 9.227 l 8.003 4.614 l 8.004 -4.614 V 89.61 l -8.004 -4.614 Z" stroke-linecap="round" />
</g>
<g transform="matrix(0.79 0 0 0.79 855.77 77.55)"  >
<path style="stroke: none; stroke-width: 1; stroke-dasharray: none; stroke-linecap: butt; stroke-dashoffset: 0; stroke-linejoin: miter; stroke-miterlimit: 4; fill: rgb(206,206,206); fill-rule: nonzero; opacity: 1;"  transform=" translate(-1082.76, -94.22)" d="m 1082.756 85.918 l 7.203 4.11 v 8.221 l -7.203 4.11 l -7.203 -4.11 v -8.137 l 7.203 -4.194 m 0 -0.923 l -8.004 4.614 v 9.227 l 8.004 4.614 l 8.003 -4.614 V 89.61 l -8.003 -4.614 Z" stroke-linecap="round" />
</g>
<g transform="matrix(0.79 0 0 0.79 867.78 77.55)"  >
<path style="stroke: none; stroke-width: 1; stroke-dasharray: none; stroke-linecap: butt; stroke-dashoffset: 0; stroke-linejoin: miter; stroke-miterlimit: 4; fill: rgb(206,206,206); fill-rule: nonzero; opacity: 1;"  transform=" translate(-1097.96, -94.22)" d="m 1097.962 85.918 l 7.203 4.11 v 8.221 l -7.203 4.11 l -7.203 -4.11 v -8.137 l 7.203 -4.194 m 0 -0.923 l -8.003 4.614 v 9.227 l 8.003 4.614 l 8.004 -4.614 V 89.61 l -8.004 -4.614 Z" stroke-linecap="round" />
</g>
<g transform="matrix(0.79 0 0 0.79 879.8 77.55)"  >
<path style="stroke: none; stroke-width: 1; stroke-dasharray: none; stroke-linecap: butt; stroke-dashoffset: 0; stroke-linejoin: miter; stroke-miterlimit: 4; fill: rgb(206,206,206); fill-rule: nonzero; opacity: 1;"  transform=" translate(-1113.17, -94.22)" d="m 1113.169 85.918 l 7.203 4.11 v 8.221 l -7.203 4.11 l -7.203 -4.11 v -8.137 l 7.203 -4.194 m 0 -0.923 l -8.004 4.614 v 9.227 l 8.004 4.614 l 8.003 -4.614 V 89.61 l -8.003 -4.614 Z" stroke-linecap="round" />
</g>
<g transform="matrix(0.79 0 0 0.79 891.81 77.55)"  >
<path style="stroke: none; stroke-width: 1; stroke-dasharray: none; stroke-linecap: butt; stroke-dashoffset: 0; stroke-linejoin: miter; stroke-miterlimit: 4; fill: rgb(206,206,206); fill-rule: nonzero; opacity: 1;"  transform=" translate(-1128.38, -94.22)" d="m 1128.375 85.918 l 7.203 4.11 v 8.221 l -7.203 4.11 l -7.203 -4.11 v -8.137 l 7.203 -4.194 m 0 -0.923 l -8.003 4.614 v 9.227 l 8.003 4.614 l 8.004 -4.614 V 89.61 l -8.004 -4.614 Z" stroke-linecap="round" />
</g>
<g transform="matrix(0.79 0 0 0.79 903.82 77.55)"  >
<path style="stroke: none; stroke-width: 1; stroke-dasharray: none; stroke-linecap: butt; stroke-dashoffset: 0; stroke-linejoin: miter; stroke-miterlimit: 4; fill: rgb(206,206,206); fill-rule: nonzero; opacity: 1;"  transform=" translate(-1143.58, -94.22)" d="m 1143.582 85.918 l 7.203 4.11 v 8.221 l -7.203 4.11 l -7.203 -4.11 v -8.137 l 7.203 -4.194 m 0 -0.923 l -8.004 4.614 v 9.227 l 8.004 4.614 l 8.003 -4.614 V 89.61 l -8.003 -4.614 Z" stroke-linecap="round" />
</g>
<g transform="matrix(0.79 0 0 0.79 915.84 77.55)"  >
<path style="stroke: none; stroke-width: 1; stroke-dasharray: none; stroke-linecap: butt; stroke-dashoffset: 0; stroke-linejoin: miter; stroke-miterlimit: 4; fill: rgb(206,206,206); fill-rule: nonzero; opacity: 1;"  transform=" translate(-1158.79, -94.22)" d="m 1158.788 85.918 l 7.203 4.11 v 8.221 l -7.203 4.11 l -7.203 -4.11 v -8.137 l 7.203 -4.194 m 0 -0.923 l -8.003 4.614 v 9.227 l 8.003 4.614 l 8.004 -4.614 V 89.61 l -8.004 -4.614 Z" stroke-linecap="round" />
</g>
<g transform="matrix(0.79 0 0 0.79 927.85 77.55)"  >
<path style="stroke: none; stroke-width: 1; stroke-dasharray: none; stroke-linecap: butt; stroke-dashoffset: 0; stroke-linejoin: miter; stroke-miterlimit: 4; fill: rgb(206,206,206); fill-rule: nonzero; opacity: 1;"  transform=" translate(-1173.99, -94.22)" d="m 1173.995 85.918 l 7.203 4.11 v 8.221 l -7.203 4.11 l -7.203 -4.11 v -8.137 l 7.203 -4.194 m 0 -0.923 l -8.004 4.614 v 9.227 l 8.004 4.614 l 8.003 -4.614 V 89.61 l -8.003 -4.614 Z" stroke-linecap="round" />
</g>
<g transform="matrix(0.79 0 0 0.79 939.86 77.55)"  >
<path style="stroke: none; stroke-width: 1; stroke-dasharray: none; stroke-linecap: butt; stroke-dashoffset: 0; stroke-linejoin: miter; stroke-miterlimit: 4; fill: rgb(206,206,206); fill-rule: nonzero; opacity: 1;"  transform=" translate(-1189.2, -94.22)" d="m 1189.201 85.918 l 7.204 4.11 v 8.221 l -7.204 4.11 l -7.203 -4.11 v -8.137 l 7.203 -4.194 m 0 -0.923 l -8.003 4.614 v 9.227 l 8.003 4.614 l 8.004 -4.614 V 89.61 l -8.004 -4.614 Z" stroke-linecap="round" />
</g>
<g transform="matrix(0.79 0 0 0.79 951.87 77.55)"  >
<path style="stroke: none; stroke-width: 1; stroke-dasharray: none; stroke-linecap: butt; stroke-dashoffset: 0; stroke-linejoin: miter; stroke-miterlimit: 4; fill: rgb(206,206,206); fill-rule: nonzero; opacity: 1;"  transform=" translate(-1204.41, -94.22)" d="m 1204.408 85.918 l 7.203 4.11 v 8.221 l -7.203 4.11 l -7.203 -4.11 v -8.137 l 7.203 -4.194 m 0 -0.923 l -8.003 4.614 v 9.227 l 8.003 4.614 l 8.003 -4.614 V 89.61 l -8.003 -4.614 Z" stroke-linecap="round" />
</g>
<g transform="matrix(0.79 0 0 0.79 963.89 77.55)"  >
<path style="stroke: none; stroke-width: 1; stroke-dasharray: none; stroke-linecap: butt; stroke-dashoffset: 0; stroke-linejoin: miter; stroke-miterlimit: 4; fill: rgb(206,206,206); fill-rule: nonzero; opacity: 1;"  transform=" translate(-1219.61, -94.22)" d="m 1219.615 85.918 l 7.203 4.11 v 8.221 l -7.203 4.11 l -7.204 -4.11 v -8.137 l 7.204 -4.194 m 0 -0.923 l -8.004 4.614 v 9.227 l 8.004 4.614 l 8.003 -4.614 V 89.61 l -8.003 -4.614 Z" stroke-linecap="round" />
</g>
<g transform="matrix(0.79 0 0 0.79 741.64 88.16)"  >
<path style="stroke: none; stroke-width: 1; stroke-dasharray: none; stroke-linecap: butt; stroke-dashoffset: 0; stroke-linejoin: miter; stroke-miterlimit: 4; fill: rgb(206,206,206); fill-rule: nonzero; opacity: 1;"  transform=" translate(-938.29, -107.64)" d="m 938.294 99.424 l 7.203 4.11 v 8.221 l -7.203 4.11 l -7.203 -4.11 v -8.22 l 7.203 -4.111 m 0 -1.007 l -8.004 4.614 v 9.227 l 8.004 4.614 l 8.003 -4.614 v -9.227 l -8.003 -4.614 Z" stroke-linecap="round" />
</g>
<g transform="matrix(0.79 0 0 0.79 753.66 88.16)"  >
<path style="stroke: none; stroke-width: 1; stroke-dasharray: none; stroke-linecap: butt; stroke-dashoffset: 0; stroke-linejoin: miter; stroke-miterlimit: 4; fill: rgb(206,206,206); fill-rule: nonzero; opacity: 1;"  transform=" translate(-953.5, -107.64)" d="m 953.5 99.424 l 7.203 4.11 v 8.221 l -7.203 4.11 l -7.203 -4.11 v -8.22 l 7.203 -4.111 m 0 -1.007 l -8.003 4.614 v 9.227 l 8.003 4.614 l 8.004 -4.614 v -9.227 l -8.004 -4.614 Z" stroke-linecap="round" />
</g>
<g transform="matrix(0.79 0 0 0.79 765.67 88.16)"  >
<path style="stroke: none; stroke-width: 1; stroke-dasharray: none; stroke-linecap: butt; stroke-dashoffset: 0; stroke-linejoin: miter; stroke-miterlimit: 4; fill: rgb(206,206,206); fill-rule: nonzero; opacity: 1;"  transform=" translate(-968.71, -107.64)" d="m 968.707 99.424 l 7.203 4.11 v 8.221 l -7.203 4.11 l -7.203 -4.11 v -8.22 l 7.203 -4.111 m 0 -1.007 l -8.004 4.614 v 9.227 l 8.004 4.614 l 8.003 -4.614 v -9.227 l -8.003 -4.614 Z" stroke-linecap="round" />
</g>
<g transform="matrix(0.79 0 0 0.79 777.68 88.16)"  >
<path style="stroke: none; stroke-width: 1; stroke-dasharray: none; stroke-linecap: butt; stroke-dashoffset: 0; stroke-linejoin: miter; stroke-miterlimit: 4; fill: rgb(206,206,206); fill-rule: nonzero; opacity: 1;"  transform=" translate(-983.91, -107.64)" d="m 983.913 99.424 l 7.203 4.11 v 8.221 l -7.203 4.11 l -7.203 -4.11 v -8.22 l 7.203 -4.111 m 0 -1.007 l -8.003 4.614 v 9.227 l 8.003 4.614 l 8.004 -4.614 v -9.227 l -8.004 -4.614 Z" stroke-linecap="round" />
</g>
<g transform="matrix(0.79 0 0 0.79 789.7 88.16)"  >
<path style="stroke: none; stroke-width: 1; stroke-dasharray: none; stroke-linecap: butt; stroke-dashoffset: 0; stroke-linejoin: miter; stroke-miterlimit: 4; fill: rgb(206,206,206); fill-rule: nonzero; opacity: 1;"  transform=" translate(-999.12, -107.64)" d="m 999.12 99.424 l 7.203 4.11 v 8.221 l -7.203 4.11 l -7.203 -4.11 v -8.22 l 7.203 -4.111 m 0 -1.007 l -8.004 4.614 v 9.227 l 8.004 4.614 l 8.003 -4.614 v -9.227 l -8.003 -4.614 Z" stroke-linecap="round" />
</g>
<g transform="matrix(0.79 0 0 0.79 801.71 88.16)"  >
<path style="stroke: none; stroke-width: 1; stroke-dasharray: none; stroke-linecap: butt; stroke-dashoffset: 0; stroke-linejoin: miter; stroke-miterlimit: 4; fill: rgb(206,206,206); fill-rule: nonzero; opacity: 1;"  transform=" translate(-1014.33, -107.64)" d="m 1014.326 99.424 l 7.203 4.11 v 8.221 l -7.203 4.11 l -7.203 -4.11 v -8.22 l 7.203 -4.111 m 0 -1.007 l -8.003 4.614 v 9.227 l 8.003 4.614 l 8.004 -4.614 v -9.227 l -8.004 -4.614 Z" stroke-linecap="round" />
</g>
<g transform="matrix(0.79 0 0 0.79 813.72 88.16)"  >
<path style="stroke: none; stroke-width: 1; stroke-dasharray: none; stroke-linecap: butt; stroke-dashoffset: 0; stroke-linejoin: miter; stroke-miterlimit: 4; fill: rgb(206,206,206); fill-rule: nonzero; opacity: 1;"  transform=" translate(-1029.53, -107.64)" d="m 1029.533 99.424 l 7.203 4.11 v 8.221 l -7.203 4.11 l -7.203 -4.11 v -8.22 l 7.203 -4.111 m 0 -1.007 l -8.004 4.614 v 9.227 l 8.004 4.614 l 8.003 -4.614 v -9.227 l -8.003 -4.614 Z" stroke-linecap="round" />
</g>
<g transform="matrix(0.79 0 0 0.79 825.74 88.16)"  >
<path style="stroke: none; stroke-width: 1; stroke-dasharray: none; stroke-linecap: butt; stroke-dashoffset: 0; stroke-linejoin: miter; stroke-miterlimit: 4; fill: rgb(206,206,206); fill-rule: nonzero; opacity: 1;"  transform=" translate(-1044.74, -107.64)" d="m 1044.74 99.424 l 7.202 4.11 v 8.221 l -7.203 4.11 l -7.203 -4.11 v -8.22 l 7.203 -4.111 m 0 -1.007 l -8.003 4.614 v 9.227 l 8.003 4.614 l 8.004 -4.614 v -9.227 l -8.004 -4.614 Z" stroke-linecap="round" />
</g>
<g transform="matrix(0.79 0 0 0.79 837.75 88.16)"  >
<path style="stroke: none; stroke-width: 1; stroke-dasharray: none; stroke-linecap: butt; stroke-dashoffset: 0; stroke-linejoin: miter; stroke-miterlimit: 4; fill: rgb(206,206,206); fill-rule: nonzero; opacity: 1;"  transform=" translate(-1059.95, -107.64)" d="m 1059.946 99.424 l 7.203 4.11 v 8.221 l -7.203 4.11 l -7.203 -4.11 v -8.22 l 7.203 -4.111 m 0 -1.007 l -8.004 4.614 v 9.227 l 8.004 4.614 l 8.003 -4.614 v -9.227 l -8.003 -4.614 Z" stroke-linecap="round" />
</g>
<g transform="matrix(0.79 0 0 0.79 849.76 88.16)"  >
<path style="stroke: none; stroke-width: 1; stroke-dasharray: none; stroke-linecap: butt; stroke-dashoffset: 0; stroke-linejoin: miter; stroke-miterlimit: 4; fill: rgb(206,206,206); fill-rule: nonzero; opacity: 1;"  transform=" translate(-1075.15, -107.64)" d="m 1075.152 99.424 l 7.203 4.11 v 8.221 l -7.203 4.11 l -7.203 -4.11 v -8.22 l 7.203 -4.111 m 0 -1.007 l -8.003 4.614 v 9.227 l 8.003 4.614 l 8.004 -4.614 v -9.227 l -8.004 -4.614 Z" stroke-linecap="round" />
</g>
<g transform="matrix(0.79 0 0 0.79 861.78 88.16)"  >
<path style="stroke: none; stroke-width: 1; stroke-dasharray: none; stroke-linecap: butt; stroke-dashoffset: 0; stroke-linejoin: miter; stroke-miterlimit: 4; fill: rgb(206,206,206); fill-rule: nonzero; opacity: 1;"  transform=" translate(-1090.36, -107.64)" d="m 1090.359 99.424 l 7.203 4.11 v 8.221 l -7.203 4.11 l -7.203 -4.11 v -8.22 l 7.203 -4.111 m 0 -1.007 l -8.004 4.614 v 9.227 l 8.004 4.614 l 8.003 -4.614 v -9.227 l -8.003 -4.614 Z" stroke-linecap="round" />
</g>
<g transform="matrix(0.79 0 0 0.79 873.79 88.16)"  >
<path style="stroke: none; stroke-width: 1; stroke-dasharray: none; stroke-linecap: butt; stroke-dashoffset: 0; stroke-linejoin: miter; stroke-miterlimit: 4; fill: rgb(206,206,206); fill-rule: nonzero; opacity: 1;"  transform=" translate(-1105.57, -107.64)" d="m 1105.565 99.424 l 7.204 4.11 v 8.221 l -7.204 4.11 l -7.203 -4.11 v -8.22 l 7.203 -4.111 m 0 -1.007 l -8.003 4.614 v 9.227 l 8.003 4.614 l 8.004 -4.614 v -9.227 l -8.004 -4.614 Z" stroke-linecap="round" />
</g>
<g transform="matrix(0.79 0 0 0.79 885.8 88.16)"  >
<path style="stroke: none; stroke-width: 1; stroke-dasharray: none; stroke-linecap: butt; stroke-dashoffset: 0; stroke-linejoin: miter; stroke-miterlimit: 4; fill: rgb(206,206,206); fill-rule: nonzero; opacity: 1;"  transform=" translate(-1120.77, -107.64)" d="m 1120.772 99.424 l 7.203 4.11 v 8.221 l -7.203 4.11 l -7.203 -4.11 v -8.22 l 7.203 -4.111 m 0 -1.007 l -8.003 4.614 v 9.227 l 8.003 4.614 l 8.003 -4.614 v -9.227 l -8.003 -4.614 Z" stroke-linecap="round" />
</g>
<g transform="matrix(0.79 0 0 0.79 897.82 88.16)"  >
<path style="stroke: none; stroke-width: 1; stroke-dasharray: none; stroke-linecap: butt; stroke-dashoffset: 0; stroke-linejoin: miter; stroke-miterlimit: 4; fill: rgb(206,206,206); fill-rule: nonzero; opacity: 1;"  transform=" translate(-1135.98, -107.64)" d="m 1135.979 99.424 l 7.203 4.11 v 8.221 l -7.203 4.11 l -7.204 -4.11 v -8.22 l 7.204 -4.111 m 0 -1.007 l -8.004 4.614 v 9.227 l 8.004 4.614 l 8.003 -4.614 v -9.227 l -8.003 -4.614 Z" stroke-linecap="round" />
</g>
<g transform="matrix(0.79 0 0 0.79 909.83 88.16)"  >
<path style="stroke: none; stroke-width: 1; stroke-dasharray: none; stroke-linecap: butt; stroke-dashoffset: 0; stroke-linejoin: miter; stroke-miterlimit: 4; fill: rgb(206,206,206); fill-rule: nonzero; opacity: 1;"  transform=" translate(-1151.18, -107.64)" d="m 1151.185 99.424 l 7.203 4.11 v 8.221 l -7.203 4.11 l -7.203 -4.11 v -8.22 l 7.203 -4.111 m 0 -1.007 l -8.003 4.614 v 9.227 l 8.003 4.614 l 8.003 -4.614 v -9.227 l -8.003 -4.614 Z" stroke-linecap="round" />
</g>
<g transform="matrix(0.79 0 0 0.79 921.84 88.16)"  >
<path style="stroke: none; stroke-width: 1; stroke-dasharray: none; stroke-linecap: butt; stroke-dashoffset: 0; stroke-linejoin: miter; stroke-miterlimit: 4; fill: rgb(206,206,206); fill-rule: nonzero; opacity: 1;"  transform=" translate(-1166.39, -107.64)" d="m 1166.392 99.424 l 7.203 4.11 v 8.221 l -7.203 4.11 l -7.204 -4.11 v -8.22 l 7.204 -4.111 m 0 -1.007 l -8.004 4.614 v 9.227 l 8.004 4.614 l 8.003 -4.614 v -9.227 l -8.003 -4.614 Z" stroke-linecap="round" />
</g>
<g transform="matrix(0.79 0 0 0.79 933.86 88.16)"  >
<path style="stroke: none; stroke-width: 1; stroke-dasharray: none; stroke-linecap: butt; stroke-dashoffset: 0; stroke-linejoin: miter; stroke-miterlimit: 4; fill: rgb(206,206,206); fill-rule: nonzero; opacity: 1;"  transform=" translate(-1181.6, -107.64)" d="m 1181.598 99.424 l 7.203 4.11 v 8.221 l -7.203 4.11 l -7.203 -4.11 v -8.22 l 7.203 -4.111 m 0 -1.007 l -8.003 4.614 v 9.227 l 8.003 4.614 l 8.004 -4.614 v -9.227 l -8.004 -4.614 Z" stroke-linecap="round" />
</g>
<g transform="matrix(0.79 0 0 0.79 945.87 88.16)"  >
<path style="stroke: none; stroke-width: 1; stroke-dasharray: none; stroke-linecap: butt; stroke-dashoffset: 0; stroke-linejoin: miter; stroke-miterlimit: 4; fill: rgb(206,206,206); fill-rule: nonzero; opacity: 1;"  transform=" translate(-1196.8, -107.64)" d="m 1196.805 99.424 l 7.203 4.11 v 8.221 l -7.203 4.11 l -7.203 -4.11 v -8.22 l 7.203 -4.111 m 0 -1.007 l -8.004 4.614 v 9.227 l 8.004 4.614 l 8.003 -4.614 v -9.227 l -8.003 -4.614 Z" stroke-linecap="round" />
</g>
<g transform="matrix(0.79 0 0 0.79 957.88 88.16)"  >
<path style="stroke: none; stroke-width: 1; stroke-dasharray: none; stroke-linecap: butt; stroke-dashoffset: 0; stroke-linejoin: miter; stroke-miterlimit: 4; fill: rgb(206,206,206); fill-rule: nonzero; opacity: 1;"  transform=" translate(-1212.01, -107.64)" d="m 1212.011 99.424 l 7.203 4.11 v 8.221 l -7.203 4.11 l -7.203 -4.11 v -8.22 l 7.203 -4.111 m 0 -1.007 l -8.003 4.614 v 9.227 l 8.003 4.614 l 8.004 -4.614 v -9.227 l -8.004 -4.614 Z" stroke-linecap="round" />
</g>
<g transform="matrix(0.79 0 0 0.79 969.89 88.16)"  >
<path style="stroke: none; stroke-width: 1; stroke-dasharray: none; stroke-linecap: butt; stroke-dashoffset: 0; stroke-linejoin: miter; stroke-miterlimit: 4; fill: rgb(206,206,206); fill-rule: nonzero; opacity: 1;"  transform=" translate(-1227.22, -107.64)" d="m 1227.218 99.424 l 7.203 4.11 v 8.221 l -7.203 4.11 l -7.203 -4.11 v -8.22 l 7.203 -4.111 m 0 -1.007 l -8.004 4.614 v 9.227 l 8.004 4.614 l 8.003 -4.614 v -9.227 l -8.003 -4.614 Z" stroke-linecap="round" />
</g>
<g transform="matrix(0.79 0 0 0.79 851.61 49.43)"  >
<path style="stroke: rgb(255,255,255); stroke-width: 7.89; stroke-dasharray: none; stroke-linecap: butt; stroke-dashoffset: 0; stroke-linejoin: miter; stroke-miterlimit: 4; fill: none; fill-rule: evenodd; opacity: 1;"  transform=" translate(-1077.5, -58.63)" d="M 922.687 117.257 V 0 h 309.627 v 117.257" stroke-linecap="round" />
</g>
<g transform="matrix(0.79 0 0 0.79 851.61 49.43)"  >
<path style="stroke: rgb(255,255,255); stroke-width: 7.89; stroke-dasharray: none; stroke-linecap: butt; stroke-dashoffset: 0; stroke-linejoin: miter; stroke-miterlimit: 4; fill: none; fill-rule: evenodd; opacity: 1;"  transform=" translate(-1077.5, -58.63)" d="M 922.687 117.257 V 0 h 309.626 v 117.257" stroke-linecap="round" />
</g>
<g transform="matrix(0.79 0 0 0.79 1218.97 64.81)"  >
<path style="stroke: none; stroke-width: 1; stroke-dasharray: none; stroke-linecap: butt; stroke-dashoffset: 0; stroke-linejoin: miter; stroke-miterlimit: 4; fill: rgb(0,0,0); fill-rule: nonzero; opacity: 0.1;"  transform=" translate(-1542.5, -78.09)" d="M 1383 58.171 L 1402 98 h 281 l 19 -39.829 z" stroke-linecap="round" />
</g>
<g transform="matrix(0.79 0 0 0.79 1218.97 47.37)"  >
<path style="stroke: none; stroke-width: 1; stroke-dasharray: none; stroke-linecap: butt; stroke-dashoffset: 0; stroke-linejoin: miter; stroke-miterlimit: 4; fill: rgb(255,255,255); fill-rule: nonzero; opacity: 1;"  transform=" translate(-140.5, -42)" d="M 0 0 h 281 v 84 H 0 z" stroke-linecap="round" />
</g>
<g transform="matrix(0.79 0 0 0.79 485.85 64.81)"  >
<path style="stroke: none; stroke-width: 1; stroke-dasharray: none; stroke-linecap: butt; stroke-dashoffset: 0; stroke-linejoin: miter; stroke-miterlimit: 4; fill: rgb(0,0,0); fill-rule: nonzero; opacity: 0.1;"  transform=" translate(-614.5, -78.09)" d="M 455 58.171 L 474 98 h 281 l 19 -39.829 z" stroke-linecap="round" />
</g>
<g transform="matrix(0.79 0 0 0.79 485.85 47.37)"  >
<path style="stroke: none; stroke-width: 1; stroke-dasharray: none; stroke-linecap: butt; stroke-dashoffset: 0; stroke-linejoin: miter; stroke-miterlimit: 4; fill: rgb(255,255,255); fill-rule: nonzero; opacity: 1;"  transform=" translate(-140.5, -42)" d="M 0 0 h 281 v 84 H 0 z" stroke-linecap="round" />
</g>
<g transform="matrix(0.79 0 0 0.79 853.96 181.78)"  >
<path style="stroke: rgb(255,255,255); stroke-width: 5; stroke-dasharray: none; stroke-linecap: butt; stroke-dashoffset: 0; stroke-linejoin: miter; stroke-miterlimit: 4; fill: none; fill-rule: evenodd; opacity: 1;"  transform=" translate(-502.47, -111.14)" d="m 962.209 2.686 l 39.79 216.912 H 2.94 L 38.148 3.522 l 924.06 -0.836 Z" stroke-linecap="round" />
</g>
<g transform="matrix(0.79 0 0 0.79 849.72 205.03)"  >
<path style="stroke: rgb(255,255,255); stroke-width: 5; stroke-dasharray: none; stroke-linecap: butt; stroke-dashoffset: 0; stroke-linejoin: miter; stroke-miterlimit: 4; fill: none; fill-rule: evenodd; opacity: 1;"  transform=" translate(-497.1, -140.58)" d="M 247.035 2.5 h 498.49 l 9.711 85.965 H 238.974 L 247.035 2.5 Z m 47.088 217.175 c 130.662 78.636 267.505 78.636 410.528 0" stroke-linecap="round" />
</g>
<g transform="matrix(0.79 0 0 0.79 848.4 211.44)"  >
<ellipse style="stroke: none; stroke-width: 1; stroke-dasharray: none; stroke-linecap: butt; stroke-dashoffset: 0; stroke-linejoin: miter; stroke-miterlimit: 4; fill: rgb(255,255,255); fill-rule: evenodd; opacity: 1;"  cx="0" cy="0" rx="11.228" ry="5.748" />
</g>
<g transform="matrix(0.79 0 0 0.79 849.65 591.67)"  >
<path style="stroke: rgb(255,255,255); stroke-width: 5; stroke-dasharray: none; stroke-linecap: butt; stroke-dashoffset: 0; stroke-linejoin: miter; stroke-miterlimit: 4; fill: none; fill-rule: evenodd; opacity: 1;"  transform=" translate(-1075, -745)" d="m 1749.972 117.5 l 362.703 1255 H 37.333 l 365.998 -1255 h 1346.64 Z" stroke-linecap="round" />
</g>
<g transform="matrix(0.79 0 0 0.79 849.63 917.91)"  >
<path style="stroke: none; stroke-width: 1; stroke-dasharray: none; stroke-linecap: butt; stroke-dashoffset: 0; stroke-linejoin: miter; stroke-miterlimit: 4; fill: rgb(255,255,255); fill-rule: evenodd; opacity: 1;"  transform=" translate(-977, -193.97)" d="M 0 190.573 h 1954 v 6.799 H 0 z" stroke-linecap="round" />
</g>
<g transform="matrix(0.79 0 0 0.79 850.39 918.07)"  >
<ellipse style="stroke: none; stroke-width: 1; stroke-dasharray: none; stroke-linecap: butt; stroke-dashoffset: 0; stroke-linejoin: miter; stroke-miterlimit: 4; fill: rgb(255,255,255); fill-rule: evenodd; opacity: 1;"  cx="0" cy="0" rx="26.253" ry="22.675" />
</g>
<g transform="matrix(0.79 0 0 0.79 850.28 923.83)"  >
<ellipse style="stroke: rgb(255,255,255); stroke-width: 8; stroke-dasharray: none; stroke-linecap: butt; stroke-dashoffset: 0; stroke-linejoin: miter; stroke-miterlimit: 4; fill: none; fill-rule: evenodd; opacity: 1;"  cx="0" cy="0" rx="235.084" ry="197.471" />
</g>
<g transform="matrix(0.79 0 0 0.79 851.22 102.29)"  >
<path style="stroke: rgb(255,255,255); stroke-width: 4; stroke-dasharray: none; stroke-linecap: butt; stroke-dashoffset: 0; stroke-linejoin: miter; stroke-miterlimit: 4; fill: none; fill-rule: evenodd; opacity: 1;"  transform=" translate(-1077, -125.53)" d="M 399 133.042 c 13.358 -1.551 21.263 -6.24 23.712 -14.065 M 1755 132.69 c -7.902 -0.304 -12.938 -1.16 -15.107 -2.564 c -7.123 -4.612 -7.57 -12.118 -7.57 -12.118" stroke-linecap="round" />
</g>
<g transform="matrix(1.75 0 0 1.75 483.39 46.41)" style=""  >
		<text xml:space="preserve" font-family="'Open Sans', sans-serif" font-size="18" font-style="normal" font-weight="normal" style="stroke: none; stroke-width: 1; stroke-dasharray: none; stroke-linecap: butt; stroke-dashoffset: 0; stroke-linejoin: miter; stroke-miterlimit: 4; fill: rgb(0,0,0); fill-rule: nonzero; opacity: 1; white-space: pre;" ><tspan x="-24.6" y="5.97" style="font-size: 19px; font-weight: bold; ">A A A</tspan></text>
</g>
<g transform="matrix(1.75 0 0 1.75 58.63 19.66)" style=""  >
		<text xml:space="preserve" font-family="'Open Sans', sans-serif" font-size="18" font-style="normal" font-weight="normal" style="stroke: none; stroke-width: 1; stroke-dasharray: none; stroke-linecap: butt; stroke-dashoffset: 0; stroke-linejoin: miter; stroke-miterlimit: 4; fill: rgb(0,0,0); fill-rule: nonzero; opacity: 1; white-space: pre;" ><tspan x="-24.6" y="5.97" style="font-size: 19px; font-weight: bold; ">A A A</tspan></text>
</g>
<g transform="matrix(1.75 0 0 1.75 1213.85 46.04)" style=""  >
		<text xml:space="preserve" font-family="'Open Sans', sans-serif" font-size="18" font-style="normal" font-weight="normal" style="stroke: none; stroke-width: 1; stroke-dasharray: none; stroke-linecap: butt; stroke-dashoffset: 0; stroke-linejoin: miter; stroke-miterlimit: 4; fill: rgb(0,0,0); fill-rule: nonzero; opacity: 1; white-space: pre;" ><tspan x="-24.6" y="5.97" style="font-size: 19px; font-weight: bold; ">A A A</tspan></text>
</g>
</svg>